<svg width="390" height="844" viewBox="0 0 390 844" fill="none" xmlns="http://www.w3.org/2000/svg">
<g clip-path="url(#clip0_363_26891)">
<rect width="390" height="844" fill="#EDF4ED"/>
<rect y="743" width="390" height="101" fill="#B0C2B0"/>
<g filter="url(#filter0_d_363_26891)">
<path d="M274.142 777.143C274.142 774.307 271.835 772 268.999 772C266.163 772 263.856 774.307 263.856 777.143C263.856 779.979 266.163 782.286 268.999 782.286C271.835 782.286 274.142 779.979 274.142 777.143ZM266.428 777.143C266.428 775.725 267.581 774.571 268.999 774.571C270.417 774.571 271.571 775.725 271.571 777.143C271.571 778.561 270.417 779.714 268.999 779.714C267.581 779.714 266.428 778.561 266.428 777.143Z" fill="white"/>
<path d="M287 792.571C287 793.282 286.424 793.857 285.714 793.857C281.765 793.857 278.658 792.283 276.5 789.693C274.269 787.017 273.853 786.143 272.336 786.143H265.664C264.119 786.143 263.638 787.129 261.5 789.693C259.332 792.294 256.221 793.857 252.286 793.857C251.576 793.857 251 793.282 251 792.571C251 791.861 251.576 791.286 252.286 791.286C255.442 791.286 257.839 790.071 259.526 788.047C261.568 785.597 262.718 783.571 265.664 783.571H272.336C275.259 783.571 276.397 785.554 278.474 788.047C280.17 790.082 282.572 791.286 285.714 791.286C286.424 791.286 287 791.861 287 792.571Z" fill="white"/>
<path d="M281.784 802.15L273.646 804.493L277.07 805.479C277.752 805.675 278.146 806.388 277.949 807.07C277.755 807.746 277.05 808.147 276.358 807.95L268.999 805.831L261.641 807.95C260.95 808.147 260.244 807.746 260.05 807.07C259.854 806.388 260.247 805.675 260.93 805.479L264.352 804.493L256.191 802.144C252.217 801.087 253.003 795.143 257.135 795.143H263.857V791.286C263.857 790.576 264.432 790 265.142 790C265.853 790 266.428 790.576 266.428 791.286V795.143C266.428 796.561 265.275 797.714 263.857 797.714H257.135C255.992 797.714 255.756 799.366 256.878 799.667L268.999 803.156L281.096 799.673C282.268 799.36 281.998 797.715 280.864 797.715H274.142C272.724 797.715 271.571 796.561 271.571 795.143V791.286C271.571 790.576 272.147 790 272.857 790C273.567 790 274.142 790.576 274.142 791.286V795.143H280.864C285.01 795.143 285.788 801.086 281.784 802.15Z" fill="white"/>
</g>
<g filter="url(#filter1_d_363_26891)">
<path d="M125.745 779.754C129.567 779.754 133.179 779.843 136.784 779.733C141.904 779.578 143.319 780.328 143.348 785.069C143.376 789.776 143.202 794.484 143.101 799.191C143.068 800.71 143.065 802.236 142.909 803.745C142.641 806.344 141.61 807.367 138.924 807.487C134.328 807.693 129.726 807.79 125.125 807.883C121.886 807.949 118.636 808.088 115.407 807.92C109.514 807.614 106.754 801.831 106.797 797.651C106.851 792.441 107.015 787.228 106.9 782.021C106.828 778.756 107.173 775.85 110.358 773.956C113.902 771.849 117.642 771.263 121.405 773.099C123.869 774.301 125.035 776.646 125.621 779.218C125.677 779.46 125.732 779.702 125.745 779.754ZM124.197 805.078C128.873 805.078 133.575 805.022 138.274 805.108C139.916 805.138 140.389 804.373 140.452 803.02C140.598 799.884 140.808 796.75 140.892 793.612C140.969 790.724 140.943 787.832 140.907 784.943C140.876 782.418 140.46 782.008 137.907 782.028C135.026 782.051 132.146 782.143 129.266 782.229C128.185 782.261 127.106 782.36 125.904 782.436C125.904 783.115 125.904 783.667 125.904 784.22C125.904 787.258 125.925 790.297 125.89 793.336C125.881 794.099 125.483 794.897 125.621 795.615C126.284 799.054 126.281 802.357 124.197 805.078ZM123.596 791.931C123.596 789.762 123.639 787.804 123.584 785.85C123.582 783.88 123.462 781.913 123.226 779.957C122.927 777.955 122.008 776.112 120.027 775.184C118.518 774.522 116.836 774.322 115.206 774.61C113.576 774.898 112.076 775.661 110.907 776.797C110.042 777.777 109.531 779.003 109.452 780.289C109.328 783.313 109.567 786.352 109.665 789.385C109.682 789.917 109.723 790.448 109.759 791.071C114.388 788.388 119.977 788.726 123.596 791.931ZM117.365 805.572C120.793 806.177 123.615 802.549 123.473 799.063C123.304 794.918 121.484 791.535 115.799 791.728C112.079 791.855 109.163 794.421 109.374 798.077C109.603 802.048 111.992 805.902 117.365 805.572ZM116.438 797.422C115.949 797.43 115.47 798.046 114.987 798.396C115.403 798.897 115.748 799.693 116.258 799.808C116.706 799.91 117.339 799.249 118.335 798.663C117.412 798.023 116.92 797.414 116.438 797.422Z" fill="white"/>
</g>
<g filter="url(#filter2_d_363_26891)">
<path d="M60.1975 769.512H65.4383C66.9922 769.512 68.4044 770.036 69.4267 770.882C70.4508 771.727 71.0851 772.893 71.0851 774.177V806.335C71.0851 807.619 70.4508 808.786 69.4267 809.63C68.4044 810.475 66.9922 811 65.4383 811H36.6468C35.0928 811 33.6807 810.476 32.6583 809.63C31.6343 808.786 31 807.619 31 806.335V774.177C31 772.893 31.6343 771.727 32.6583 770.882C33.6807 770.036 35.0928 769.512 36.6468 769.512H41.8875V768.03C41.8875 767.461 42.4468 767 43.1366 767H58.9485C59.6382 767 60.1975 767.462 60.1975 768.03V769.512ZM41.8892 771.574H36.6484C35.7842 771.574 34.9966 771.867 34.4243 772.34C33.8536 772.811 33.4981 773.462 33.4981 774.177V806.335C33.4981 807.051 33.8519 807.7 34.4243 808.173C34.995 808.644 35.7826 808.938 36.6484 808.938H65.4399C66.3041 808.938 67.0917 808.644 67.6641 808.173C68.2348 807.701 68.5902 807.051 68.5902 806.335V774.177C68.5902 773.463 68.2364 772.812 67.6641 772.34C67.0933 771.868 66.3058 771.574 65.4399 771.574H60.1992V773.056C60.1992 773.626 59.6399 774.088 58.9501 774.088H43.1382C42.4484 774.088 41.8892 773.626 41.8892 773.056V771.574ZM57.7011 769.062H44.3856V770.544V772.026H57.7011V770.544V769.062ZM53.0327 800.201C52.3429 800.201 51.7836 799.739 51.7836 799.171C51.7836 798.601 52.3429 798.139 53.0327 798.139H62.5896C63.2794 798.139 63.8387 798.601 63.8387 799.171C63.8387 799.74 63.2794 800.201 62.5896 800.201H53.0327ZM38.6149 799.722C38.1274 799.319 38.1274 798.665 38.6149 798.263C39.1025 797.86 39.8917 797.86 40.3808 798.263L42.2071 799.771L46.313 796.38C46.8005 795.977 47.5914 795.977 48.0789 796.38C48.5665 796.782 48.5665 797.434 48.0789 797.837L43.0909 801.958C42.6034 802.36 41.8141 802.36 41.3266 801.958L38.6182 799.72L38.6149 799.722ZM53.0327 791.288C52.3429 791.288 51.7836 790.826 51.7836 790.256C51.7836 789.686 52.3429 789.224 53.0327 789.224H62.5896C63.2794 789.224 63.8387 789.686 63.8387 790.256C63.8387 790.826 63.2794 791.288 62.5896 791.288H53.0327ZM38.6149 790.808C38.1274 790.406 38.1274 789.752 38.6149 789.35C39.1025 788.947 39.8917 788.947 40.3808 789.35L42.2071 790.858L46.313 787.466C46.8005 787.064 47.5914 787.064 48.0789 787.466C48.5665 787.869 48.5665 788.521 48.0789 788.925L43.0909 793.046C42.6034 793.448 41.8141 793.448 41.3266 793.046L38.6182 790.808H38.6149ZM53.0327 782.375C52.3429 782.375 51.7836 781.913 51.7836 781.343C51.7836 780.773 52.3429 780.312 53.0327 780.312H62.5896C63.2794 780.312 63.8387 780.774 63.8387 781.343C63.8387 781.913 63.2794 782.375 62.5896 782.375H53.0327ZM38.6149 781.895C38.1274 781.492 38.1274 780.841 38.6149 780.436C39.1025 780.034 39.8917 780.034 40.3808 780.436L42.2071 781.945L46.313 778.553C46.8005 778.151 47.5914 778.151 48.0789 778.553C48.5665 778.956 48.5665 779.609 48.0789 780.012L43.0909 784.133C42.6034 784.535 41.8141 784.535 41.3266 784.133L38.6182 781.895H38.6149Z" fill="white"/>
</g>
<g filter="url(#filter3_d_363_26891)">
<path fill-rule="evenodd" clip-rule="evenodd" d="M353.041 800.226C351.23 797.343 348.459 795.242 345.282 794.232C346.942 792.944 348.029 790.953 348.029 788.697C348.029 784.822 344.877 781.668 341 781.668C337.125 781.668 333.971 784.822 333.971 788.697C333.971 790.953 335.058 792.946 336.718 794.232C333.541 795.242 330.77 797.343 328.959 800.226C326.613 797.466 325.187 793.899 325.187 790.002C325.187 781.281 332.281 774.187 341 774.187C349.719 774.187 356.813 781.281 356.813 790.002C356.813 793.899 355.387 797.466 353.041 800.226ZM336.158 788.697C336.158 786.026 338.33 783.855 341 783.855C343.67 783.855 345.842 786.026 345.842 788.697C345.842 791.367 343.67 793.538 341 793.538C338.33 793.538 336.158 791.367 336.158 788.697ZM341 805.813C336.967 805.813 333.296 804.285 330.501 801.792C330.527 801.757 330.571 801.739 330.595 801.697C332.751 798.015 336.736 795.725 341 795.725C345.262 795.725 349.249 798.015 351.403 801.695C351.427 801.737 351.464 801.761 351.493 801.798C348.698 804.287 345.028 805.813 341 805.813ZM341 772C331.076 772 323 780.076 323 790.002C323 799.926 331.076 808 341 808C350.924 808 359 799.926 359 790.002C359 780.076 350.924 772 341 772Z" fill="white"/>
</g>
<g filter="url(#filter4_d_363_26891)">
<path d="M212.731 782.171L198.195 772.26C197.946 772.091 197.652 772 197.351 772C197.05 772 196.755 772.091 196.506 772.26L181.97 782.171C181.163 782.721 180.502 783.46 180.045 784.324C179.589 785.188 179.35 786.151 179.351 787.128V802C179.352 803.591 179.985 805.116 181.11 806.241C182.235 807.365 183.76 807.998 185.351 808H209.351C210.942 807.998 212.467 807.365 213.592 806.241C214.717 805.116 215.349 803.591 215.351 802V787.128C215.352 786.151 215.113 785.188 214.656 784.324C214.2 783.46 213.539 782.721 212.731 782.171ZM201.909 805H192.793V796.808C192.793 795.599 193.273 794.439 194.128 793.585C194.983 792.73 196.142 792.25 197.351 792.25C198.56 792.25 199.719 792.73 200.574 793.585C201.429 794.439 201.909 795.599 201.909 796.808V805ZM212.351 802C212.351 802.796 212.035 803.559 211.473 804.121C210.91 804.684 210.147 805 209.351 805H204.909V796.808C204.909 794.803 204.113 792.881 202.695 791.463C201.278 790.046 199.355 789.25 197.351 789.25C195.346 789.25 193.424 790.046 192.007 791.463C190.589 792.881 189.793 794.803 189.793 796.808V805H185.351C184.555 805 183.792 804.684 183.229 804.121C182.667 803.559 182.351 802.796 182.351 802V787.128C182.351 786.64 182.471 786.159 182.699 785.728C182.928 785.297 183.258 784.928 183.661 784.653L197.351 775.315L211.041 784.649C211.445 784.924 211.775 785.294 212.003 785.726C212.232 786.158 212.351 786.639 212.351 787.128V802Z" fill="white"/>
</g>
<g clip-path="url(#clip1_363_26891)">
<path d="M118.26 -1H271.692V14C271.692 23.3888 264.129 31 254.8 31H135.152C125.823 31 118.26 23.3888 118.26 14V-1Z" fill="black"/>
<path d="M118.49 -1L117 -2C119.634 -2 118.291 1.14875 118.291 3.79934C118.291 3.86656 118.29 3.93345 118.287 4H118.49V-1Z" fill="black"/>
<path d="M271.51 -1L273 -2C270.366 -2 271.709 1.14875 271.709 3.79934C271.709 3.86656 271.71 3.93345 271.713 4H271.51V-1Z" fill="black"/>
<path d="M36.8786 19.7231C34.2805 19.7231 32.4294 21.4995 32.4294 23.9316V23.9482C32.4294 26.2227 34.0397 27.8994 36.3391 27.8994C37.9826 27.8994 39.0285 27.061 39.4684 26.1147H39.6345C39.6345 26.2061 39.6262 26.2974 39.6262 26.3887C39.5349 28.6797 38.7297 30.5391 36.8288 30.5391C35.7746 30.5391 35.0358 29.9912 34.7204 29.1528L34.6955 29.0698H32.5871L32.6037 29.1611C32.9855 30.9956 34.6291 32.2988 36.8288 32.2988C39.842 32.2988 41.6599 29.9082 41.6599 25.874V25.8574C41.6599 21.541 39.4352 19.7231 36.8786 19.7231ZM36.8703 26.2559C35.509 26.2559 34.5212 25.2598 34.5212 23.8735V23.8569C34.5212 22.5205 35.5754 21.4663 36.8952 21.4663C38.2233 21.4663 39.2609 22.5371 39.2609 23.9067V23.9233C39.2609 25.2764 38.2233 26.2559 36.8703 26.2559ZM45.0204 24.2388C45.7841 24.2388 46.3402 23.6577 46.3402 22.9272C46.3402 22.1885 45.7841 21.6157 45.0204 21.6157C44.265 21.6157 43.7006 22.1885 43.7006 22.9272C43.7006 23.6577 44.265 24.2388 45.0204 24.2388ZM45.0204 30.3979C45.7841 30.3979 46.3402 29.8252 46.3402 29.0864C46.3402 28.3477 45.7841 27.7749 45.0204 27.7749C44.265 27.7749 43.7006 28.3477 43.7006 29.0864C43.7006 29.8252 44.265 30.3979 45.0204 30.3979ZM54.1915 32H56.2418V29.7007H57.8522V27.9326H56.2418V20.022H53.212C51.5851 22.4956 49.8834 25.2515 48.3312 27.9492V29.7007H54.1915V32ZM50.3233 27.9824V27.8579C51.4855 25.8242 52.8717 23.6079 54.1002 21.7319H54.2247V27.9824H50.3233ZM62.408 32H64.5496V20.022H62.4163L59.2869 22.2217V24.2388L62.2669 22.1304H62.408V32Z" fill="black"/>
<path opacity="0.35" d="M341.5 23C341.5 21.067 343.067 19.5 345 19.5H362C363.933 19.5 365.5 21.067 365.5 23V28C365.5 29.933 363.933 31.5 362 31.5H345C343.067 31.5 341.5 29.933 341.5 28V23Z" stroke="black"/>
<path opacity="0.4" d="M367 24V28.2203C367.849 27.8629 368.401 27.0314 368.401 26.1102C368.401 25.1889 367.849 24.3574 367 24Z" fill="black"/>
<path d="M343 23C343 21.8954 343.895 21 345 21H362C363.105 21 364 21.8954 364 23V28C364 29.1046 363.105 30 362 30H345C343.895 30 343 29.1046 343 28V23Z" fill="black"/>
<path fill-rule="evenodd" clip-rule="evenodd" d="M325.5 22.5875C327.967 22.5876 330.339 23.5551 332.127 25.2898C332.261 25.4237 332.477 25.4221 332.609 25.286L333.896 23.9604C333.963 23.8915 334.001 23.798 334 23.7008C333.999 23.6035 333.961 23.5105 333.893 23.4423C329.201 18.8526 321.799 18.8526 317.107 23.4423C317.039 23.5105 317.001 23.6034 317 23.7007C316.999 23.7979 317.037 23.8914 317.104 23.9604L318.391 25.286C318.523 25.4223 318.739 25.424 318.873 25.2898C320.661 23.5549 323.034 22.5875 325.5 22.5875ZM325.536 26.5894C326.891 26.5893 328.198 27.1035 329.203 28.032C329.338 28.1638 329.552 28.1609 329.685 28.0255L330.97 26.7C331.038 26.6304 331.075 26.5361 331.074 26.4381C331.073 26.3401 331.034 26.2466 330.965 26.1784C327.906 23.2739 323.169 23.2739 320.109 26.1784C320.04 26.2466 320.001 26.3401 320 26.4382C319.999 26.5362 320.037 26.6305 320.105 26.7L321.39 28.0255C321.522 28.1609 321.736 28.1638 321.872 28.032C322.876 27.1041 324.182 26.5899 325.536 26.5894ZM328.15 29.1767C328.152 29.275 328.114 29.3698 328.045 29.4386L325.822 31.7289C325.756 31.7962 325.668 31.834 325.575 31.834C325.482 31.834 325.393 31.7962 325.328 31.7289L323.105 29.4386C323.036 29.3697 322.998 29.2749 323 29.1766C323.002 29.0783 323.044 28.9853 323.115 28.9194C324.535 27.6935 326.615 27.6935 328.035 28.9194C328.106 28.9853 328.148 29.0784 328.15 29.1767Z" fill="black"/>
<path d="M301 23C301 22.4477 301.448 22 302 22H303C303.552 22 304 22.4477 304 23V31C304 31.5523 303.552 32 303 32H302C301.448 32 301 31.5523 301 31V23Z" fill="black"/>
<path d="M306 21C306 20.4477 306.448 20 307 20H308C308.552 20 309 20.4477 309 21V31C309 31.5523 308.552 32 308 32H307C306.448 32 306 31.5523 306 31V21Z" fill="black"/>
<path d="M296 26.5C296 25.9477 296.448 25.5 297 25.5H298C298.552 25.5 299 25.9477 299 26.5V31C299 31.5523 298.552 32 298 32H297C296.448 32 296 31.5523 296 31V26.5Z" fill="black"/>
<path d="M291 29C291 28.4477 291.448 28 292 28H293C293.552 28 294 28.4477 294 29V31C294 31.5523 293.552 32 293 32H292C291.448 32 291 31.5523 291 31V29Z" fill="black"/>
</g>
<rect x="128" y="831" width="134" height="5" rx="2.5" fill="black"/>
<path d="M120.537 100.632C123.011 100.632 125.134 101.08 126.905 101.976C128.675 102.872 130.03 104.163 130.969 105.848C131.907 107.533 132.377 109.539 132.377 111.864C132.377 114.168 131.907 116.163 130.969 117.848C130.03 119.512 128.675 120.792 126.905 121.688C125.134 122.563 123.011 123 120.537 123H113.913V100.632H120.537ZM120.537 121.144C123.651 121.144 126.019 120.333 127.641 118.712C129.283 117.069 130.105 114.787 130.105 111.864C130.105 108.92 129.283 106.627 127.641 104.984C126.019 103.32 123.651 102.488 120.537 102.488H116.153V121.144H120.537ZM135.074 114.232C135.074 112.44 135.426 110.872 136.13 109.528C136.856 108.163 137.848 107.117 139.106 106.392C140.386 105.645 141.826 105.272 143.426 105.272C145.09 105.272 146.52 105.656 147.714 106.424C148.93 107.192 149.805 108.173 150.338 109.368V105.528H152.578V123H150.338V119.128C149.784 120.323 148.898 121.315 147.682 122.104C146.488 122.872 145.058 123.256 143.394 123.256C141.816 123.256 140.386 122.883 139.106 122.136C137.848 121.389 136.856 120.333 136.13 118.968C135.426 117.603 135.074 116.024 135.074 114.232ZM150.338 114.264C150.338 112.856 150.05 111.619 149.474 110.552C148.898 109.485 148.109 108.664 147.106 108.088C146.125 107.512 145.037 107.224 143.842 107.224C142.605 107.224 141.496 107.501 140.514 108.056C139.533 108.611 138.754 109.421 138.178 110.488C137.624 111.533 137.346 112.781 137.346 114.232C137.346 115.661 137.624 116.92 138.178 118.008C138.754 119.075 139.533 119.896 140.514 120.472C141.496 121.027 142.605 121.304 143.842 121.304C145.037 121.304 146.125 121.016 147.106 120.44C148.109 119.864 148.898 119.043 149.474 117.976C150.05 116.909 150.338 115.672 150.338 114.264ZM158.404 102.232C157.956 102.232 157.572 102.072 157.252 101.752C156.932 101.432 156.772 101.037 156.772 100.568C156.772 100.099 156.932 99.7147 157.252 99.416C157.572 99.096 157.956 98.936 158.404 98.936C158.852 98.936 159.236 99.096 159.556 99.416C159.876 99.7147 160.036 100.099 160.036 100.568C160.036 101.037 159.876 101.432 159.556 101.752C159.236 102.072 158.852 102.232 158.404 102.232ZM159.524 105.528V123H157.284V105.528H159.524ZM166.429 99.32V123H164.189V99.32H166.429ZM185.493 105.528L175.125 131.224H172.789L176.181 122.904L169.013 105.528H171.477L177.429 120.44L183.189 105.528H185.493ZM203.824 105.272C205.466 105.272 206.896 105.656 208.112 106.424C209.328 107.192 210.202 108.163 210.736 109.336V105.528H212.976V123.448C212.976 125.048 212.624 126.467 211.92 127.704C211.237 128.941 210.277 129.891 209.04 130.552C207.802 131.235 206.394 131.576 204.816 131.576C202.576 131.576 200.709 131.043 199.216 129.976C197.744 128.909 196.826 127.459 196.464 125.624H198.672C199.056 126.84 199.781 127.811 200.848 128.536C201.936 129.261 203.258 129.624 204.816 129.624C205.946 129.624 206.96 129.379 207.856 128.888C208.752 128.419 209.456 127.715 209.968 126.776C210.48 125.837 210.736 124.728 210.736 123.448V119.128C210.181 120.323 209.296 121.315 208.08 122.104C206.885 122.872 205.466 123.256 203.824 123.256C202.224 123.256 200.784 122.883 199.504 122.136C198.245 121.389 197.253 120.333 196.528 118.968C195.824 117.603 195.472 116.024 195.472 114.232C195.472 112.44 195.824 110.872 196.528 109.528C197.253 108.163 198.245 107.117 199.504 106.392C200.784 105.645 202.224 105.272 203.824 105.272ZM210.736 114.264C210.736 112.856 210.448 111.619 209.872 110.552C209.296 109.485 208.506 108.664 207.504 108.088C206.522 107.512 205.434 107.224 204.24 107.224C203.002 107.224 201.893 107.501 200.912 108.056C199.93 108.611 199.152 109.421 198.576 110.488C198.021 111.533 197.744 112.781 197.744 114.232C197.744 115.661 198.021 116.92 198.576 118.008C199.152 119.075 199.93 119.896 200.912 120.472C201.893 121.027 203.002 121.304 204.24 121.304C205.434 121.304 206.522 121.016 207.504 120.44C208.506 119.864 209.296 119.043 209.872 117.976C210.448 116.909 210.736 115.672 210.736 114.264ZM225.329 123.256C223.687 123.256 222.204 122.893 220.881 122.168C219.58 121.421 218.545 120.376 217.777 119.032C217.031 117.667 216.657 116.077 216.657 114.264C216.657 112.451 217.041 110.872 217.809 109.528C218.577 108.163 219.623 107.117 220.945 106.392C222.268 105.645 223.751 105.272 225.393 105.272C227.036 105.272 228.519 105.645 229.841 106.392C231.185 107.117 232.231 108.163 232.977 109.528C233.745 110.872 234.129 112.451 234.129 114.264C234.129 116.056 233.745 117.635 232.977 119C232.209 120.365 231.153 121.421 229.809 122.168C228.465 122.893 226.972 123.256 225.329 123.256ZM225.329 121.304C226.481 121.304 227.548 121.048 228.529 120.536C229.511 120.003 230.3 119.213 230.897 118.168C231.516 117.101 231.825 115.8 231.825 114.264C231.825 112.728 231.527 111.437 230.929 110.392C230.332 109.325 229.543 108.536 228.561 108.024C227.58 107.491 226.513 107.224 225.361 107.224C224.209 107.224 223.143 107.491 222.161 108.024C221.18 108.536 220.391 109.325 219.793 110.392C219.217 111.437 218.929 112.728 218.929 114.264C218.929 115.8 219.217 117.101 219.793 118.168C220.391 119.213 221.169 120.003 222.129 120.536C223.111 121.048 224.177 121.304 225.329 121.304ZM236.781 114.232C236.781 112.44 237.133 110.872 237.837 109.528C238.562 108.163 239.554 107.117 240.813 106.392C242.093 105.645 243.533 105.272 245.133 105.272C246.797 105.272 248.226 105.656 249.421 106.424C250.637 107.192 251.511 108.173 252.045 109.368V105.528H254.285V123H252.045V119.128C251.49 120.323 250.605 121.315 249.389 122.104C248.194 122.872 246.765 123.256 245.101 123.256C243.522 123.256 242.093 122.883 240.813 122.136C239.554 121.389 238.562 120.333 237.837 118.968C237.133 117.603 236.781 116.024 236.781 114.232ZM252.045 114.264C252.045 112.856 251.757 111.619 251.181 110.552C250.605 109.485 249.815 108.664 248.813 108.088C247.831 107.512 246.743 107.224 245.549 107.224C244.311 107.224 243.202 107.501 242.221 108.056C241.239 108.611 240.461 109.421 239.885 110.488C239.33 111.533 239.053 112.781 239.053 114.232C239.053 115.661 239.33 116.92 239.885 118.008C240.461 119.075 241.239 119.896 242.221 120.472C243.202 121.027 244.311 121.304 245.549 121.304C246.743 121.304 247.831 121.016 248.813 120.44C249.815 119.864 250.605 119.043 251.181 117.976C251.757 116.909 252.045 115.672 252.045 114.264ZM261.231 99.32V123H258.991V99.32H261.231ZM271.911 123.256C269.906 123.256 268.263 122.797 266.983 121.88C265.724 120.941 265.02 119.672 264.871 118.072H267.175C267.282 119.053 267.74 119.853 268.551 120.472C269.383 121.069 270.492 121.368 271.879 121.368C273.095 121.368 274.044 121.08 274.727 120.504C275.431 119.928 275.783 119.213 275.783 118.36C275.783 117.763 275.591 117.272 275.207 116.888C274.823 116.504 274.332 116.205 273.735 115.992C273.159 115.757 272.37 115.512 271.367 115.256C270.066 114.915 269.01 114.573 268.199 114.232C267.388 113.891 266.695 113.389 266.119 112.728C265.564 112.045 265.287 111.139 265.287 110.008C265.287 109.155 265.543 108.365 266.055 107.64C266.567 106.915 267.292 106.339 268.231 105.912C269.17 105.485 270.236 105.272 271.431 105.272C273.308 105.272 274.823 105.752 275.975 106.712C277.127 107.651 277.746 108.952 277.831 110.616H275.591C275.527 109.592 275.122 108.771 274.375 108.152C273.65 107.512 272.647 107.192 271.367 107.192C270.236 107.192 269.319 107.459 268.615 107.992C267.911 108.525 267.559 109.187 267.559 109.976C267.559 110.659 267.762 111.224 268.167 111.672C268.594 112.099 269.116 112.44 269.735 112.696C270.354 112.931 271.186 113.197 272.231 113.496C273.49 113.837 274.492 114.168 275.239 114.488C275.986 114.808 276.626 115.277 277.159 115.896C277.692 116.515 277.97 117.336 277.991 118.36C277.991 119.299 277.735 120.141 277.223 120.888C276.711 121.613 275.996 122.189 275.079 122.616C274.162 123.043 273.106 123.256 271.911 123.256Z" fill="black"/>
<path d="M193.667 411.113L186.056 739.93H222.591L199.756 403.502L193.667 411.113Z" fill="#331C10"/>
<path d="M242.382 408.067L199.758 467.437L201.28 481.14L242.382 408.067Z" fill="#331C10"/>
<path d="M155.609 409.591L198.233 484.183L195.19 502.45L155.609 406.546V409.591Z" fill="#331C10"/>
<path d="M123.641 485.705L199.757 577.042V593.788L147.998 532.896L84.0605 496.361L146.476 525.285L123.641 485.705Z" fill="#331C10"/>
<path d="M275.869 497.883L204.321 560.298V578.566L275.869 497.883Z" fill="#331C10"/>
<path d="M231.724 543.553L235.075 541.943L312.882 504.611L239.247 533.382L231.724 543.553Z" fill="#331C10"/>
<path d="M205.846 624.233L246.948 592.266L274.841 563.657L253.037 595.312L319.113 563.959L256.08 599.877L205.846 644.025L202.8 622.712" fill="#331C10"/>
<path d="M87.1357 569.053L143.431 616.623L198.233 645.547L199.757 631.847L147.998 610.533L132.776 557.253L140.387 604.444L87.1357 569.053Z" fill="#331C10"/>
<path d="M155.609 409.591L160.134 417.506L155.609 406.546V409.591Z" fill="#331C10"/>
<path d="M319.113 563.959L253.037 595.309L274.844 563.655L246.948 592.264L214.292 617.663L211.118 570.901L238.072 540.505L312.88 504.611L247.117 530.307L275.87 497.883L210.058 555.294L204.621 475.194L242.379 408.067L203.719 461.915L199.755 403.502L193.665 411.113L192.218 473.657L160.131 417.506C191.666 495.103 194.273 479.492 190.093 565.449L123.639 485.705L146.474 525.285L84.0605 496.361L147.998 532.896L189.713 581.972L188.664 627.279L147.998 610.536L132.774 557.255L140.385 604.446L87.1333 569.055L143.428 616.625L188.357 640.338L186.052 739.932H222.587L215.501 635.538L256.076 599.881L319.113 563.959Z" fill="#331C10"/>
<path d="M155.608 409.591L160.133 417.506L155.608 406.545V409.591Z" fill="#331C10"/>
<path d="M215.506 635.536L256.081 599.876L319.114 563.958L249.992 599.876L210.411 631.846L200.714 739.929H222.592L215.506 635.536Z" fill="#331C10"/>
<path d="M204.322 560.298L206.102 620.931L214.026 613.741L211.118 570.903L238.074 540.507L312.882 504.611L247.117 530.307L275.87 497.882L210.058 555.294L204.621 475.194L242.381 408.067L201.101 473.348L204.322 560.298Z" fill="#331C10"/>
<mask id="mask0_363_26891" style="mask-type:luminance" maskUnits="userSpaceOnUse" x="77" y="331" width="249" height="104">
<path d="M294.191 370.695C290.231 370.695 286.459 371.456 282.965 372.784C273.839 353.159 247.062 343.567 227.212 353.713C204.513 315.753 140.418 327.837 133.381 371.696C119.201 367.78 103.518 375.402 97.4223 388.053C60.7411 393.169 79.1143 448.535 111.588 430.6C124.44 437.475 142.284 433.099 150.586 421.623C167.917 437.444 198.716 437.856 216.477 422.46C230.423 436.608 256.708 437.671 271.772 424.579C317.845 462.865 353.959 376.516 294.191 370.695Z" fill="white"/>
</mask>
<g mask="url(#mask0_363_26891)">
<path d="M294.191 370.695C290.231 370.695 286.459 371.456 282.965 372.784C273.839 353.159 247.062 343.567 227.212 353.713C204.513 315.753 140.418 327.837 133.381 371.696C119.201 367.78 103.518 375.402 97.4223 388.053C60.7411 393.169 79.1143 448.535 111.588 430.6C124.44 437.475 142.284 433.099 150.586 421.623C167.917 437.444 198.716 437.856 216.477 422.46C230.423 436.608 256.708 437.671 271.772 424.579C317.845 462.865 353.959 376.516 294.191 370.695Z" fill="#769914"/>
</g>
<mask id="mask1_363_26891" style="mask-type:luminance" maskUnits="userSpaceOnUse" x="77" y="331" width="249" height="104">
<path d="M294.191 370.695C290.231 370.695 286.459 371.456 282.965 372.784C273.839 353.159 247.062 343.567 227.212 353.713C204.513 315.753 140.418 327.837 133.381 371.696C119.201 367.78 103.518 375.402 97.4223 388.053C60.7411 393.169 79.1143 448.535 111.588 430.6C124.44 437.475 142.284 433.099 150.586 421.623C167.917 437.444 198.716 437.856 216.477 422.46C230.423 436.608 256.708 437.671 271.772 424.579C317.845 462.865 353.959 376.516 294.191 370.695Z" fill="white"/>
</mask>
<g mask="url(#mask1_363_26891)">
<path d="M314.079 377.749C323.948 407.234 285.062 431.491 262.851 410.403C248.656 424.434 222.357 425.056 207.533 411.831C190.794 428.331 160.033 429.889 141.723 415.214C134.175 427.199 116.642 432.707 103.38 426.67C99.135 429.682 93.3587 431.282 87.9629 430.636C94.7679 434.969 104.801 434.954 111.59 430.604C124.442 437.479 142.286 433.103 150.588 421.627C167.919 437.448 198.718 437.86 216.479 422.465C230.424 436.613 256.71 437.675 271.774 424.583C302.808 455.175 347.618 405.426 314.079 377.749Z" fill="#A3C02D"/>
</g>
<mask id="mask2_363_26891" style="mask-type:luminance" maskUnits="userSpaceOnUse" x="77" y="331" width="249" height="104">
<path d="M294.191 370.695C290.231 370.695 286.459 371.456 282.965 372.784C273.839 353.159 247.062 343.567 227.212 353.713C204.513 315.753 140.418 327.837 133.381 371.696C119.201 367.78 103.518 375.402 97.4223 388.053C60.7411 393.169 79.1143 448.535 111.588 430.6C124.44 437.475 142.284 433.099 150.586 421.623C167.917 437.444 198.716 437.856 216.477 422.46C230.423 436.608 256.708 437.671 271.772 424.579C317.845 462.865 353.959 376.516 294.191 370.695Z" fill="white"/>
</mask>
<g mask="url(#mask2_363_26891)">
<path d="M245.342 341.96L227.214 353.713C227.214 353.713 207.028 359.201 201.281 376.442C204.246 355.095 221.025 339.07 245.342 341.96Z" fill="#A3C02D"/>
</g>
<mask id="mask3_363_26891" style="mask-type:luminance" maskUnits="userSpaceOnUse" x="77" y="331" width="249" height="104">
<path d="M294.191 370.695C290.231 370.695 286.459 371.456 282.965 372.784C273.839 353.159 247.062 343.567 227.212 353.713C204.513 315.753 140.418 327.837 133.381 371.696C119.201 367.78 103.518 375.402 97.4223 388.053C60.7411 393.169 79.1143 448.535 111.588 430.6C124.44 437.475 142.284 433.099 150.586 421.623C167.917 437.444 198.716 437.856 216.477 422.46C230.423 436.608 256.708 437.671 271.772 424.579C317.845 462.865 353.959 376.516 294.191 370.695Z" fill="white"/>
</mask>
<g mask="url(#mask3_363_26891)">
<path d="M314.304 355.37L296.176 367.122C296.176 367.122 275.991 372.611 270.244 389.852C273.209 368.505 289.991 352.479 314.304 355.37Z" fill="#A3C02D"/>
</g>
<mask id="mask4_363_26891" style="mask-type:luminance" maskUnits="userSpaceOnUse" x="227" y="443" width="123" height="74">
<path d="M323.43 463.033C321.589 463.033 319.792 463.223 318.054 463.578C303.704 431.03 250.664 440.428 248.883 476.403C207.36 477.737 233.68 537.868 262.802 508.422C274.399 518.092 293.871 518.673 306.05 509.642C345.166 538.525 372.004 466.95 323.43 463.033Z" fill="white"/>
</mask>
<g mask="url(#mask4_363_26891)">
<path d="M321.771 479.633C320.952 527.635 249.548 527.628 248.735 479.631C249.555 431.631 320.959 431.638 321.771 479.633Z" fill="#769914"/>
<path d="M349.99 489.592C349.835 524.324 297.025 524.321 296.874 489.59C297.032 454.86 349.84 454.862 349.99 489.592Z" fill="#769914"/>
<path d="M266.994 496.233C267.372 522.077 226.777 522.077 227.157 496.23C226.781 470.388 267.377 470.388 266.994 496.233Z" fill="#769914"/>
</g>
<mask id="mask5_363_26891" style="mask-type:luminance" maskUnits="userSpaceOnUse" x="227" y="443" width="123" height="74">
<path d="M323.43 463.033C321.589 463.033 319.792 463.223 318.054 463.578C303.704 431.03 250.664 440.428 248.883 476.403C207.36 477.737 233.68 537.868 262.802 508.422C274.399 518.092 293.871 518.673 306.05 509.642C345.166 538.525 372.004 466.95 323.43 463.033Z" fill="white"/>
</mask>
<g mask="url(#mask5_363_26891)">
<path d="M336.71 451.416L321.002 461.599C321.002 461.599 303.511 466.354 298.531 481.294C300.848 463.081 315.991 448.723 336.71 451.416Z" fill="#A3C02D"/>
</g>
<mask id="mask6_363_26891" style="mask-type:luminance" maskUnits="userSpaceOnUse" x="227" y="443" width="123" height="74">
<path d="M323.43 463.033C321.589 463.033 319.792 463.223 318.054 463.578C303.704 431.03 250.664 440.428 248.883 476.403C207.36 477.737 233.68 537.868 262.802 508.422C274.399 518.092 293.871 518.673 306.05 509.642C345.166 538.525 372.004 466.95 323.43 463.033Z" fill="white"/>
</mask>
<g mask="url(#mask6_363_26891)">
<path d="M342.918 471.592C348.715 494.078 321.222 512.654 302.523 499.501C291.695 510.115 272.327 512.204 259.516 504.21C255.518 511.636 245.672 515.963 237.284 513.566C245.42 518.522 257.366 515.972 262.805 508.424C274.402 518.095 293.874 518.676 306.052 509.644C330.19 531.576 365.593 494.99 342.918 471.592Z" fill="#A3C02D"/>
</g>
<mask id="mask7_363_26891" style="mask-type:luminance" maskUnits="userSpaceOnUse" x="228" y="534" width="139" height="62">
<path d="M345.134 550.333C343.632 550.333 342.169 550.488 340.755 550.78C332.28 531.075 301.571 528.621 290.077 546.785C276.744 534.595 252.716 541.637 247.986 558.882C212.331 560.242 232.891 612.849 260.009 589.821C270.299 596.167 285.509 593.432 292.965 584.243C302.066 594.431 319.985 596.324 331.062 588.043C362.712 611.433 384.446 553.502 345.134 550.333Z" fill="white"/>
</mask>
<g mask="url(#mask7_363_26891)">
<path d="M343.79 563.764C343.616 602.413 284.854 602.409 284.686 563.762C284.859 525.116 343.621 525.12 343.79 563.764Z" fill="#769914"/>
<path d="M366.624 571.823C367.031 599.707 323.23 599.71 323.64 571.821C323.232 543.939 367.036 543.939 366.624 571.823Z" fill="#769914"/>
<path d="M299.461 566.945C299.305 601.434 246.867 601.432 246.716 566.943C246.873 532.456 299.31 532.459 299.461 566.945Z" fill="#769914"/>
<path d="M265.196 577.086C265.543 600.774 228.332 600.774 228.681 577.084C228.334 553.398 265.545 553.398 265.196 577.086Z" fill="#769914"/>
</g>
<mask id="mask8_363_26891" style="mask-type:luminance" maskUnits="userSpaceOnUse" x="228" y="534" width="139" height="62">
<path d="M345.134 550.333C343.632 550.333 342.169 550.488 340.755 550.78C332.28 531.075 301.571 528.621 290.077 546.785C276.744 534.595 252.716 541.637 247.986 558.882C212.331 560.242 232.891 612.849 260.009 589.821C270.299 596.167 285.509 593.432 292.965 584.243C302.066 594.431 319.985 596.324 331.062 588.043C362.712 611.433 384.446 553.502 345.134 550.333Z" fill="white"/>
</mask>
<g mask="url(#mask8_363_26891)">
<path d="M378.796 534.487L359.599 546.933C359.599 546.933 338.222 552.743 332.138 571.002C335.278 548.396 353.043 531.428 378.796 534.487Z" fill="#A3C02D"/>
</g>
<mask id="mask9_363_26891" style="mask-type:luminance" maskUnits="userSpaceOnUse" x="228" y="534" width="139" height="62">
<path d="M345.134 550.333C343.632 550.333 342.169 550.488 340.755 550.78C332.28 531.075 301.571 528.621 290.077 546.785C276.744 534.595 252.716 541.637 247.986 558.882C212.331 560.242 232.891 612.849 260.009 589.821C270.299 596.167 285.509 593.432 292.965 584.243C302.066 594.431 319.985 596.324 331.062 588.043C362.712 611.433 384.446 553.502 345.134 550.333Z" fill="white"/>
</mask>
<g mask="url(#mask9_363_26891)">
<path d="M311.347 517.804L299.815 537.564C299.815 537.564 283.348 552.381 286.137 571.423C278.758 549.826 286.977 526.671 311.347 517.804Z" fill="#A3C02D"/>
</g>
<mask id="mask10_363_26891" style="mask-type:luminance" maskUnits="userSpaceOnUse" x="228" y="534" width="139" height="62">
<path d="M345.134 550.333C343.632 550.333 342.169 550.488 340.755 550.78C332.28 531.075 301.571 528.621 290.077 546.785C276.744 534.595 252.716 541.637 247.986 558.882C212.331 560.242 232.891 612.849 260.009 589.821C270.299 596.167 285.509 593.432 292.965 584.243C302.066 594.431 319.985 596.324 331.062 588.043C362.712 611.433 384.446 553.502 345.134 550.333Z" fill="white"/>
</mask>
<g mask="url(#mask10_363_26891)">
<path d="M364.449 562.444C361.718 576.814 342.523 584.063 330.935 574.899C320.618 584.115 302.605 583.791 292.651 574.435C286.024 584.238 271.11 588.29 260.307 582.865C251.879 594.112 232.187 590.22 228.705 576.616C227.658 592.831 249.311 601.653 260.008 589.819C270.298 596.165 285.508 593.43 292.964 584.241C302.065 594.429 319.983 596.322 331.061 588.041C347.687 603.454 375.074 582.642 364.449 562.444Z" fill="#A3C02D"/>
</g>
<mask id="mask11_363_26891" style="mask-type:luminance" maskUnits="userSpaceOnUse" x="53" y="531" width="123" height="56">
<path d="M156.914 545.77C155.574 545.77 154.266 545.91 153.003 546.171C145.435 528.572 118.008 526.379 107.741 542.603C95.8329 531.714 74.3734 538.006 70.1504 553.408C38.309 554.623 56.6688 601.608 80.8881 581.04C90.0792 586.708 103.662 584.263 110.321 576.058C118.449 585.157 134.452 586.848 144.346 579.453C172.613 600.338 192.026 548.602 156.914 545.77Z" fill="white"/>
</mask>
<g mask="url(#mask11_363_26891)">
<path d="M155.714 557.766C155.559 592.282 103.08 592.28 102.929 557.764C103.084 523.251 155.563 523.255 155.714 557.766Z" fill="#769914"/>
<path d="M176.109 564.965C176.472 589.869 137.352 589.869 137.719 564.963C137.357 540.061 176.476 540.061 176.109 564.965Z" fill="#769914"/>
<path d="M116.126 560.607C115.988 591.408 69.1546 591.406 69.0195 560.605C69.1591 529.805 115.993 529.808 116.126 560.607Z" fill="#769914"/>
<path d="M85.5217 569.666C85.8301 590.821 52.5997 590.821 52.9104 569.663C52.602 548.51 85.8346 548.51 85.5217 569.666Z" fill="#769914"/>
</g>
<mask id="mask12_363_26891" style="mask-type:luminance" maskUnits="userSpaceOnUse" x="53" y="531" width="123" height="56">
<path d="M156.914 545.77C155.574 545.77 154.266 545.91 153.003 546.171C145.435 528.572 118.008 526.379 107.741 542.603C95.8329 531.714 74.3734 538.006 70.1504 553.408C38.309 554.623 56.6688 601.608 80.8881 581.04C90.0792 586.708 103.662 584.263 110.321 576.058C118.449 585.157 134.452 586.848 144.346 579.453C172.613 600.338 192.026 548.602 156.914 545.77Z" fill="white"/>
</mask>
<g mask="url(#mask12_363_26891)">
<path d="M178.998 531.375L163.742 541.266C163.742 541.266 146.753 545.885 141.918 560.393C144.165 542.707 158.875 528.761 178.998 531.375Z" fill="#A3C02D"/>
</g>
<mask id="mask13_363_26891" style="mask-type:luminance" maskUnits="userSpaceOnUse" x="53" y="531" width="123" height="56">
<path d="M156.914 545.77C155.574 545.77 154.266 545.91 153.003 546.171C145.435 528.572 118.008 526.379 107.741 542.603C95.8329 531.714 74.3734 538.006 70.1504 553.408C38.309 554.623 56.6688 601.608 80.8881 581.04C90.0792 586.708 103.662 584.263 110.321 576.058C118.449 585.157 134.452 586.848 144.346 579.453C172.613 600.338 192.026 548.602 156.914 545.77Z" fill="white"/>
</mask>
<g mask="url(#mask13_363_26891)">
<path d="M124.443 518.444L114.786 533.851C114.786 533.851 101.334 545.207 103.072 560.402C97.6466 543.418 105.093 524.57 124.443 518.444Z" fill="#A3C02D"/>
</g>
<mask id="mask14_363_26891" style="mask-type:luminance" maskUnits="userSpaceOnUse" x="53" y="531" width="123" height="56">
<path d="M156.914 545.77C155.574 545.77 154.266 545.91 153.003 546.171C145.435 528.572 118.008 526.379 107.741 542.603C95.8329 531.714 74.3734 538.006 70.1504 553.408C38.309 554.623 56.6688 601.608 80.8881 581.04C90.0792 586.708 103.662 584.263 110.321 576.058C118.449 585.157 134.452 586.848 144.346 579.453C172.613 600.338 192.026 548.602 156.914 545.77Z" fill="white"/>
</mask>
<g mask="url(#mask14_363_26891)">
<path d="M173.223 554.88C174.02 570.282 154.634 580.112 142.667 570.586C133.386 578.739 117.3 578.314 108.48 569.884C102.49 578.588 89.1388 582.096 79.5312 577.17C73.9508 584.52 61.3493 584.963 55.2646 578.075C60.0797 586.98 74.1061 588.66 80.8864 581.038C90.0775 586.706 103.66 584.261 110.319 576.056C118.448 585.155 134.451 586.845 144.344 579.451C160.043 593.932 185.041 572.769 173.223 554.88Z" fill="#A3C02D"/>
</g>
<mask id="mask15_363_26891" style="mask-type:luminance" maskUnits="userSpaceOnUse" x="23" y="445" width="161" height="76">
<path d="M158.592 469.974C157.359 469.974 156.156 470.093 154.972 470.269C146.121 435.031 92.6177 437.387 86.9855 473.378C74.6968 465.571 56.6072 471.973 51.7651 485.353C39.7016 477.693 22.598 487.255 23.0122 501.687C22.3594 519.993 48.1499 527.624 57.7327 512.443C69.0781 524.094 91.1769 519.486 97.0162 504.494C107.299 515.178 126.395 517.58 139.114 509.498C173.193 545.056 207.659 475.518 158.592 469.974Z" fill="white"/>
</mask>
<g mask="url(#mask15_363_26891)">
<path d="M156.211 479.489C156.007 525.112 86.6375 525.11 86.4395 479.487C86.6443 433.865 156.013 433.869 156.211 479.489Z" fill="#769914"/>
<path d="M99.1274 494.554C98.9834 526.697 50.1103 526.694 49.9707 494.551C50.1125 462.41 98.9856 462.413 99.1274 494.554Z" fill="#769914"/>
<path d="M183.169 494.554C183.025 526.697 134.152 526.694 134.013 494.551C134.157 462.41 183.03 462.413 183.169 494.554Z" fill="#769914"/>
<path d="M61.068 501.689C61.4282 526.379 22.6467 526.379 23.0113 501.687C22.6512 477 61.4327 477 61.068 501.689Z" fill="#769914"/>
</g>
<mask id="mask16_363_26891" style="mask-type:luminance" maskUnits="userSpaceOnUse" x="23" y="445" width="161" height="76">
<path d="M158.592 469.974C157.359 469.974 156.156 470.093 154.972 470.269C146.121 435.031 92.6177 437.387 86.9855 473.378C74.6968 465.571 56.6072 471.973 51.7651 485.353C39.7016 477.693 22.598 487.255 23.0122 501.687C22.3594 519.993 48.1499 527.624 57.7327 512.443C69.0781 524.094 91.1769 519.486 97.0162 504.494C107.299 515.178 126.395 517.58 139.114 509.498C173.193 545.056 207.659 475.518 158.592 469.974Z" fill="white"/>
</mask>
<g mask="url(#mask16_363_26891)">
<path d="M176.829 457.289L161.824 467.018C161.824 467.018 145.114 471.561 140.357 485.833C142.568 468.434 157.036 454.718 176.829 457.289Z" fill="#A3C02D"/>
</g>
<mask id="mask17_363_26891" style="mask-type:luminance" maskUnits="userSpaceOnUse" x="23" y="445" width="161" height="76">
<path d="M158.592 469.974C157.359 469.974 156.156 470.093 154.972 470.269C146.121 435.031 92.6177 437.387 86.9855 473.378C74.6968 465.571 56.6072 471.973 51.7651 485.353C39.7016 477.693 22.598 487.255 23.0122 501.687C22.3594 519.993 48.1499 527.624 57.7327 512.443C69.0781 524.094 91.1769 519.486 97.0162 504.494C107.299 515.178 126.395 517.58 139.114 509.498C173.193 545.056 207.659 475.518 158.592 469.974Z" fill="white"/>
</mask>
<g mask="url(#mask17_363_26891)">
<path d="M74.3992 458.399L63.4522 472.542C63.4522 472.542 49.9683 477.904 49.4122 497.394C45.7475 480.243 54.8666 462.516 74.3992 458.399Z" fill="#A3C02D"/>
</g>
<mask id="mask18_363_26891" style="mask-type:luminance" maskUnits="userSpaceOnUse" x="23" y="445" width="161" height="76">
<path d="M158.592 469.974C157.359 469.974 156.156 470.093 154.972 470.269C146.121 435.031 92.6177 437.387 86.9855 473.378C74.6968 465.571 56.6072 471.973 51.7651 485.353C39.7016 477.693 22.598 487.255 23.0122 501.687C22.3594 519.993 48.1499 527.624 57.7327 512.443C69.0781 524.094 91.1769 519.486 97.0162 504.494C107.299 515.178 126.395 517.58 139.114 509.498C173.193 545.056 207.659 475.518 158.592 469.974Z" fill="white"/>
</mask>
<g mask="url(#mask18_363_26891)">
<path d="M176.396 477.641C178.483 499.047 150.007 512.13 135.078 496.926C123.845 506.973 104.616 507.716 92.7281 498.851C89.9616 510.883 76.6352 519.619 64.1553 516.788C76.1422 522.868 92.1204 516.574 97.0164 504.497C107.299 515.18 126.395 517.582 139.114 509.501C159.898 536.133 199.481 502.385 176.396 477.641Z" fill="#A3C02D"/>
</g>
<path d="M178.217 743.043C178.217 743.043 176.889 723.852 166.855 715.037C166.855 715.037 181.021 726.686 182.048 729.12C182.048 729.12 179.907 710.751 175.885 705.862C175.885 705.862 184.851 713.828 186.627 718.089C186.627 718.089 183.824 704.777 181.114 700.441C181.114 700.441 189.242 711.624 190.458 719.46C190.458 719.46 191.912 698.233 189.121 690.102C189.121 690.102 196.437 713.072 196.531 723.418C196.531 723.418 196.813 703.638 202.605 696.184C202.605 696.184 201.407 715.359 202.38 722.317C202.38 722.317 205.126 712.158 205.034 705.844C205.034 705.844 208.584 718.776 207.557 725.09C207.557 725.09 212.546 713.477 210.378 697.641C210.378 697.641 214.659 709.952 214.378 720.298C214.378 720.298 217.836 711.246 222.507 706.071C222.507 706.071 216.246 722.958 216.152 728.361C216.152 728.361 218.675 721.666 223.346 718.699C223.346 718.699 217.25 730.047 215.954 734.909C215.954 734.909 221.111 728.03 229.424 725.228C229.424 725.228 220.181 736.755 220.035 743.018L178.217 743.043Z" fill="#769914"/>
<path d="M209.445 743C209.445 743 208.515 729.574 201.494 723.406C201.494 723.406 211.406 731.558 212.124 733.259C212.124 733.259 210.624 720.408 207.811 716.986C207.811 716.986 214.084 722.56 215.327 725.54C215.327 725.54 213.366 716.226 211.471 713.191C211.471 713.191 217.159 721.016 218.008 726.497C218.008 726.497 219.026 711.645 217.072 705.954C217.072 705.954 222.191 722.024 222.256 729.264C222.256 729.264 222.452 715.424 226.506 710.208C226.506 710.208 225.668 723.625 226.348 728.494C226.348 728.494 228.271 721.387 228.205 716.968C228.205 716.968 230.691 726.018 229.97 730.434C229.97 730.434 233.459 722.31 231.944 711.228C231.944 711.228 234.938 719.841 234.743 727.08C234.743 727.08 237.162 720.746 240.431 717.126C240.431 717.126 236.05 728.942 235.985 732.721C235.985 732.721 237.75 728.037 241.019 725.961C241.019 725.961 236.753 733.901 235.846 737.302C235.846 737.302 239.454 732.49 245.271 730.529C245.271 730.529 238.803 738.594 238.702 742.975L209.445 743Z" fill="#769914"/>
<rect x="139" y="371" width="129" height="34" rx="17" fill="#EAEAEA" fill-opacity="0.4"/>
<g filter="url(#filter5_d_363_26891)">
<path d="M167.345 379.1V393H165.065V383.48L160.825 393H159.245L154.985 383.48V393H152.705V379.1H155.165L160.045 390L164.905 379.1H167.345ZM180.034 387.22C180.034 387.633 180.007 388.007 179.954 388.34H171.534C171.601 389.22 171.927 389.927 172.514 390.46C173.101 390.993 173.821 391.26 174.674 391.26C175.901 391.26 176.767 390.747 177.274 389.72H179.734C179.401 390.733 178.794 391.567 177.914 392.22C177.047 392.86 175.967 393.18 174.674 393.18C173.621 393.18 172.674 392.947 171.834 392.48C171.007 392 170.354 391.333 169.874 390.48C169.407 389.613 169.174 388.613 169.174 387.48C169.174 386.347 169.401 385.353 169.854 384.5C170.321 383.633 170.967 382.967 171.794 382.5C172.634 382.033 173.594 381.8 174.674 381.8C175.714 381.8 176.641 382.027 177.454 382.48C178.267 382.933 178.901 383.573 179.354 384.4C179.807 385.213 180.034 386.153 180.034 387.22ZM177.654 386.5C177.641 385.66 177.341 384.987 176.754 384.48C176.167 383.973 175.441 383.72 174.574 383.72C173.787 383.72 173.114 383.973 172.554 384.48C171.994 384.973 171.661 385.647 171.554 386.5H177.654ZM181.11 387.44C181.11 386.333 181.336 385.353 181.79 384.5C182.256 383.647 182.883 382.987 183.67 382.52C184.47 382.04 185.356 381.8 186.33 381.8C187.05 381.8 187.756 381.96 188.45 382.28C189.156 382.587 189.716 383 190.13 383.52V378.2H192.43V393H190.13V391.34C189.756 391.873 189.236 392.313 188.57 392.66C187.916 393.007 187.163 393.18 186.31 393.18C185.35 393.18 184.47 392.94 183.67 392.46C182.883 391.967 182.256 391.287 181.79 390.42C181.336 389.54 181.11 388.547 181.11 387.44ZM190.13 387.48C190.13 386.72 189.97 386.06 189.65 385.5C189.343 384.94 188.936 384.513 188.43 384.22C187.923 383.927 187.376 383.78 186.79 383.78C186.203 383.78 185.656 383.927 185.15 384.22C184.643 384.5 184.23 384.92 183.91 385.48C183.603 386.027 183.45 386.68 183.45 387.44C183.45 388.2 183.603 388.867 183.91 389.44C184.23 390.013 184.643 390.453 185.15 390.76C185.67 391.053 186.216 391.2 186.79 391.2C187.376 391.2 187.923 391.053 188.43 390.76C188.936 390.467 189.343 390.04 189.65 389.48C189.97 388.907 190.13 388.24 190.13 387.48ZM196.176 380.52C195.763 380.52 195.416 380.38 195.136 380.1C194.856 379.82 194.716 379.473 194.716 379.06C194.716 378.647 194.856 378.3 195.136 378.02C195.416 377.74 195.763 377.6 196.176 377.6C196.576 377.6 196.916 377.74 197.196 378.02C197.476 378.3 197.616 378.647 197.616 379.06C197.616 379.473 197.476 379.82 197.196 380.1C196.916 380.38 196.576 380.52 196.176 380.52ZM197.296 381.98V393H195.016V381.98H197.296ZM202.542 383.84V389.94C202.542 390.353 202.635 390.653 202.822 390.84C203.022 391.013 203.355 391.1 203.822 391.1H205.222V393H203.422C202.395 393 201.608 392.76 201.062 392.28C200.515 391.8 200.242 391.02 200.242 389.94V383.84H198.942V381.98H200.242V379.24H202.542V381.98H205.222V383.84H202.542ZM206.155 387.44C206.155 386.333 206.382 385.353 206.835 384.5C207.302 383.647 207.928 382.987 208.715 382.52C209.515 382.04 210.395 381.8 211.355 381.8C212.222 381.8 212.975 381.973 213.615 382.32C214.268 382.653 214.788 383.073 215.175 383.58V381.98H217.475V393H215.175V391.36C214.788 391.88 214.262 392.313 213.595 392.66C212.928 393.007 212.168 393.18 211.315 393.18C210.368 393.18 209.502 392.94 208.715 392.46C207.928 391.967 207.302 391.287 206.835 390.42C206.382 389.54 206.155 388.547 206.155 387.44ZM215.175 387.48C215.175 386.72 215.015 386.06 214.695 385.5C214.388 384.94 213.982 384.513 213.475 384.22C212.968 383.927 212.422 383.78 211.835 383.78C211.248 383.78 210.702 383.927 210.195 384.22C209.688 384.5 209.275 384.92 208.955 385.48C208.648 386.027 208.495 386.68 208.495 387.44C208.495 388.2 208.648 388.867 208.955 389.44C209.275 390.013 209.688 390.453 210.195 390.76C210.715 391.053 211.262 391.2 211.835 391.2C212.422 391.2 212.968 391.053 213.475 390.76C213.982 390.467 214.388 390.04 214.695 389.48C215.015 388.907 215.175 388.24 215.175 387.48ZM222.722 383.84V389.94C222.722 390.353 222.815 390.653 223.002 390.84C223.202 391.013 223.535 391.1 224.002 391.1H225.402V393H223.602C222.575 393 221.788 392.76 221.242 392.28C220.695 391.8 220.422 391.02 220.422 389.94V383.84H219.122V381.98H220.422V379.24H222.722V381.98H225.402V383.84H222.722ZM228.255 380.52C227.842 380.52 227.495 380.38 227.215 380.1C226.935 379.82 226.795 379.473 226.795 379.06C226.795 378.647 226.935 378.3 227.215 378.02C227.495 377.74 227.842 377.6 228.255 377.6C228.655 377.6 228.995 377.74 229.275 378.02C229.555 378.3 229.695 378.647 229.695 379.06C229.695 379.473 229.555 379.82 229.275 380.1C228.995 380.38 228.655 380.52 228.255 380.52ZM229.375 381.98V393H227.095V381.98H229.375ZM236.741 393.18C235.701 393.18 234.761 392.947 233.921 392.48C233.081 392 232.421 391.333 231.941 390.48C231.461 389.613 231.221 388.613 231.221 387.48C231.221 386.36 231.467 385.367 231.961 384.5C232.454 383.633 233.127 382.967 233.981 382.5C234.834 382.033 235.787 381.8 236.841 381.8C237.894 381.8 238.847 382.033 239.701 382.5C240.554 382.967 241.227 383.633 241.721 384.5C242.214 385.367 242.461 386.36 242.461 387.48C242.461 388.6 242.207 389.593 241.701 390.46C241.194 391.327 240.501 392 239.621 392.48C238.754 392.947 237.794 393.18 236.741 393.18ZM236.741 391.2C237.327 391.2 237.874 391.06 238.381 390.78C238.901 390.5 239.321 390.08 239.641 389.52C239.961 388.96 240.121 388.28 240.121 387.48C240.121 386.68 239.967 386.007 239.661 385.46C239.354 384.9 238.947 384.48 238.441 384.2C237.934 383.92 237.387 383.78 236.801 383.78C236.214 383.78 235.667 383.92 235.161 384.2C234.667 384.48 234.274 384.9 233.981 385.46C233.687 386.007 233.541 386.68 233.541 387.48C233.541 388.667 233.841 389.587 234.441 390.24C235.054 390.88 235.821 391.2 236.741 391.2ZM249.867 381.8C250.733 381.8 251.507 381.98 252.187 382.34C252.88 382.7 253.42 383.233 253.807 383.94C254.193 384.647 254.387 385.5 254.387 386.5V393H252.127V386.84C252.127 385.853 251.88 385.1 251.387 384.58C250.893 384.047 250.22 383.78 249.367 383.78C248.513 383.78 247.833 384.047 247.327 384.58C246.833 385.1 246.587 385.853 246.587 386.84V393H244.307V381.98H246.587V383.24C246.96 382.787 247.433 382.433 248.007 382.18C248.593 381.927 249.213 381.8 249.867 381.8Z" fill="white"/>
</g>
<g filter="url(#filter6_d_363_26891)">
<path d="M101.844 476.49L97.7043 484.464V489H95.6523V484.464L91.4943 476.49H93.7803L96.6783 482.628L99.5763 476.49H101.844ZM107.367 489.162C106.431 489.162 105.585 488.952 104.829 488.532C104.073 488.1 103.479 487.5 103.047 486.732C102.615 485.952 102.399 485.052 102.399 484.032C102.399 483.024 102.621 482.13 103.065 481.35C103.509 480.57 104.115 479.97 104.883 479.55C105.651 479.13 106.509 478.92 107.457 478.92C108.405 478.92 109.263 479.13 110.031 479.55C110.799 479.97 111.405 480.57 111.849 481.35C112.293 482.13 112.515 483.024 112.515 484.032C112.515 485.04 112.287 485.934 111.831 486.714C111.375 487.494 110.751 488.1 109.959 488.532C109.179 488.952 108.315 489.162 107.367 489.162ZM107.367 487.38C107.895 487.38 108.387 487.254 108.843 487.002C109.311 486.75 109.689 486.372 109.977 485.868C110.265 485.364 110.409 484.752 110.409 484.032C110.409 483.312 110.271 482.706 109.995 482.214C109.719 481.71 109.353 481.332 108.897 481.08C108.441 480.828 107.949 480.702 107.421 480.702C106.893 480.702 106.401 480.828 105.945 481.08C105.501 481.332 105.147 481.71 104.883 482.214C104.619 482.706 104.487 483.312 104.487 484.032C104.487 485.1 104.757 485.928 105.297 486.516C105.849 487.092 106.539 487.38 107.367 487.38ZM118.131 478.92C118.899 478.92 119.577 479.076 120.165 479.388C120.765 479.688 121.233 480.066 121.569 480.522V479.082H123.639V489.162C123.639 490.074 123.447 490.884 123.063 491.592C122.679 492.312 122.121 492.876 121.389 493.284C120.669 493.692 119.805 493.896 118.797 493.896C117.453 493.896 116.337 493.578 115.449 492.942C114.561 492.318 114.057 491.466 113.937 490.386H115.971C116.127 490.902 116.457 491.316 116.961 491.628C117.477 491.952 118.089 492.114 118.797 492.114C119.625 492.114 120.291 491.862 120.795 491.358C121.311 490.854 121.569 490.122 121.569 489.162V487.506C121.221 487.974 120.747 488.37 120.147 488.694C119.559 489.006 118.887 489.162 118.131 489.162C117.267 489.162 116.475 488.946 115.755 488.514C115.047 488.07 114.483 487.458 114.063 486.678C113.655 485.886 113.451 484.992 113.451 483.996C113.451 483 113.655 482.118 114.063 481.35C114.483 480.582 115.047 479.988 115.755 479.568C116.475 479.136 117.267 478.92 118.131 478.92ZM121.569 484.032C121.569 483.348 121.425 482.754 121.137 482.25C120.861 481.746 120.495 481.362 120.039 481.098C119.583 480.834 119.091 480.702 118.563 480.702C118.035 480.702 117.543 480.834 117.087 481.098C116.631 481.35 116.259 481.728 115.971 482.232C115.695 482.724 115.557 483.312 115.557 483.996C115.557 484.68 115.695 485.28 115.971 485.796C116.259 486.312 116.631 486.708 117.087 486.984C117.555 487.248 118.047 487.38 118.563 487.38C119.091 487.38 119.583 487.248 120.039 486.984C120.495 486.72 120.861 486.336 121.137 485.832C121.425 485.316 121.569 484.716 121.569 484.032ZM125.242 483.996C125.242 483 125.446 482.118 125.854 481.35C126.274 480.582 126.838 479.988 127.546 479.568C128.266 479.136 129.058 478.92 129.922 478.92C130.702 478.92 131.38 479.076 131.956 479.388C132.544 479.688 133.012 480.066 133.36 480.522V479.082H135.43V489H133.36V487.524C133.012 487.992 132.538 488.382 131.938 488.694C131.338 489.006 130.654 489.162 129.886 489.162C129.034 489.162 128.254 488.946 127.546 488.514C126.838 488.07 126.274 487.458 125.854 486.678C125.446 485.886 125.242 484.992 125.242 483.996ZM133.36 484.032C133.36 483.348 133.216 482.754 132.928 482.25C132.652 481.746 132.286 481.362 131.83 481.098C131.374 480.834 130.882 480.702 130.354 480.702C129.826 480.702 129.334 480.834 128.878 481.098C128.422 481.35 128.05 481.728 127.762 482.232C127.486 482.724 127.348 483.312 127.348 483.996C127.348 484.68 127.486 485.28 127.762 485.796C128.05 486.312 128.422 486.708 128.878 486.984C129.346 487.248 129.838 487.38 130.354 487.38C130.882 487.38 131.374 487.248 131.83 486.984C132.286 486.72 132.652 486.336 132.928 485.832C133.216 485.316 133.36 484.716 133.36 484.032Z" fill="white"/>
</g>
<g filter="url(#filter7_d_363_26891)">
<path d="M268.774 489.126C267.934 489.126 267.178 488.982 266.506 488.694C265.834 488.394 265.306 487.974 264.922 487.434C264.538 486.894 264.346 486.264 264.346 485.544H266.542C266.59 486.084 266.8 486.528 267.172 486.876C267.556 487.224 268.09 487.398 268.774 487.398C269.482 487.398 270.034 487.23 270.43 486.894C270.826 486.546 271.024 486.102 271.024 485.562C271.024 485.142 270.898 484.8 270.646 484.536C270.406 484.272 270.1 484.068 269.728 483.924C269.368 483.78 268.864 483.624 268.216 483.456C267.4 483.24 266.734 483.024 266.218 482.808C265.714 482.58 265.282 482.232 264.922 481.764C264.562 481.296 264.382 480.672 264.382 479.892C264.382 479.172 264.562 478.542 264.922 478.002C265.282 477.462 265.786 477.048 266.434 476.76C267.082 476.472 267.832 476.328 268.684 476.328C269.896 476.328 270.886 476.634 271.654 477.246C272.434 477.846 272.866 478.674 272.95 479.73H270.682C270.646 479.274 270.43 478.884 270.034 478.56C269.638 478.236 269.116 478.074 268.468 478.074C267.88 478.074 267.4 478.224 267.028 478.524C266.656 478.824 266.47 479.256 266.47 479.82C266.47 480.204 266.584 480.522 266.812 480.774C267.052 481.014 267.352 481.206 267.712 481.35C268.072 481.494 268.564 481.65 269.188 481.818C270.016 482.046 270.688 482.274 271.204 482.502C271.732 482.73 272.176 483.084 272.536 483.564C272.908 484.032 273.094 484.662 273.094 485.454C273.094 486.09 272.92 486.69 272.572 487.254C272.236 487.818 271.738 488.274 271.078 488.622C270.43 488.958 269.662 489.126 268.774 489.126ZM277.16 475.68V489H275.108V475.68H277.16ZM288.536 483.798C288.536 484.17 288.512 484.506 288.464 484.806H280.886C280.946 485.598 281.24 486.234 281.768 486.714C282.296 487.194 282.944 487.434 283.712 487.434C284.816 487.434 285.596 486.972 286.052 486.048H288.266C287.966 486.96 287.42 487.71 286.628 488.298C285.848 488.874 284.876 489.162 283.712 489.162C282.764 489.162 281.912 488.952 281.156 488.532C280.412 488.1 279.824 487.5 279.392 486.732C278.972 485.952 278.762 485.052 278.762 484.032C278.762 483.012 278.966 482.118 279.374 481.35C279.794 480.57 280.376 479.97 281.12 479.55C281.876 479.13 282.74 478.92 283.712 478.92C284.648 478.92 285.482 479.124 286.214 479.532C286.946 479.94 287.516 480.516 287.924 481.26C288.332 481.992 288.536 482.838 288.536 483.798ZM286.394 483.15C286.382 482.394 286.112 481.788 285.584 481.332C285.056 480.876 284.402 480.648 283.622 480.648C282.914 480.648 282.308 480.876 281.804 481.332C281.3 481.776 281 482.382 280.904 483.15H286.394ZM299.237 483.798C299.237 484.17 299.213 484.506 299.165 484.806H291.587C291.647 485.598 291.941 486.234 292.469 486.714C292.997 487.194 293.645 487.434 294.413 487.434C295.517 487.434 296.297 486.972 296.753 486.048H298.967C298.667 486.96 298.121 487.71 297.329 488.298C296.549 488.874 295.577 489.162 294.413 489.162C293.465 489.162 292.613 488.952 291.857 488.532C291.113 488.1 290.525 487.5 290.093 486.732C289.673 485.952 289.463 485.052 289.463 484.032C289.463 483.012 289.667 482.118 290.075 481.35C290.495 480.57 291.077 479.97 291.821 479.55C292.577 479.13 293.441 478.92 294.413 478.92C295.349 478.92 296.183 479.124 296.915 479.532C297.647 479.94 298.217 480.516 298.625 481.26C299.033 481.992 299.237 482.838 299.237 483.798ZM297.095 483.15C297.083 482.394 296.813 481.788 296.285 481.332C295.757 480.876 295.103 480.648 294.323 480.648C293.615 480.648 293.009 480.876 292.505 481.332C292.001 481.776 291.701 482.382 291.605 483.15H297.095ZM302.9 480.54C303.248 480.084 303.722 479.7 304.322 479.388C304.922 479.076 305.6 478.92 306.356 478.92C307.22 478.92 308.006 479.136 308.714 479.568C309.434 479.988 309.998 480.582 310.406 481.35C310.814 482.118 311.018 483 311.018 483.996C311.018 484.992 310.814 485.886 310.406 486.678C309.998 487.458 309.434 488.07 308.714 488.514C308.006 488.946 307.22 489.162 306.356 489.162C305.6 489.162 304.928 489.012 304.34 488.712C303.752 488.4 303.272 488.016 302.9 487.56V493.716H300.848V479.082H302.9V480.54ZM308.93 483.996C308.93 483.312 308.786 482.724 308.498 482.232C308.222 481.728 307.85 481.35 307.382 481.098C306.926 480.834 306.434 480.702 305.906 480.702C305.39 480.702 304.898 480.834 304.43 481.098C303.974 481.362 303.602 481.746 303.314 482.25C303.038 482.754 302.9 483.348 302.9 484.032C302.9 484.716 303.038 485.316 303.314 485.832C303.602 486.336 303.974 486.72 304.43 486.984C304.898 487.248 305.39 487.38 305.906 487.38C306.434 487.38 306.926 487.248 307.382 486.984C307.85 486.708 308.222 486.312 308.498 485.796C308.786 485.28 308.93 484.68 308.93 483.996Z" fill="white"/>
</g>
<g filter="url(#filter8_d_363_26891)">
<path d="M281.099 554.49L277.391 567H275.069L272.441 557.532L269.651 567L267.347 567.018L263.801 554.49H265.979L268.571 564.678L271.379 554.49H273.683L276.293 564.624L278.903 554.49H281.099ZM281.7 561.996C281.7 561 281.904 560.118 282.312 559.35C282.732 558.582 283.296 557.988 284.004 557.568C284.724 557.136 285.516 556.92 286.38 556.92C287.16 556.92 287.838 557.076 288.414 557.388C289.002 557.688 289.47 558.066 289.818 558.522V557.082H291.888V567H289.818V565.524C289.47 565.992 288.996 566.382 288.396 566.694C287.796 567.006 287.112 567.162 286.344 567.162C285.492 567.162 284.712 566.946 284.004 566.514C283.296 566.07 282.732 565.458 282.312 564.678C281.904 563.886 281.7 562.992 281.7 561.996ZM289.818 562.032C289.818 561.348 289.674 560.754 289.386 560.25C289.11 559.746 288.744 559.362 288.288 559.098C287.832 558.834 287.34 558.702 286.812 558.702C286.284 558.702 285.792 558.834 285.336 559.098C284.88 559.35 284.508 559.728 284.22 560.232C283.944 560.724 283.806 561.312 283.806 561.996C283.806 562.68 283.944 563.28 284.22 563.796C284.508 564.312 284.88 564.708 285.336 564.984C285.804 565.248 286.296 565.38 286.812 565.38C287.34 565.38 287.832 565.248 288.288 564.984C288.744 564.72 289.11 564.336 289.386 563.832C289.674 563.316 289.818 562.716 289.818 562.032ZM296.227 553.68V567H294.175V553.68H296.227ZM302.437 562.05L307.009 567H304.237L300.565 562.734V567H298.513V553.68H300.565V561.42L304.165 557.082H307.009L302.437 562.05ZM309.116 555.768C308.744 555.768 308.432 555.642 308.18 555.39C307.928 555.138 307.802 554.826 307.802 554.454C307.802 554.082 307.928 553.77 308.18 553.518C308.432 553.266 308.744 553.14 309.116 553.14C309.476 553.14 309.782 553.266 310.034 553.518C310.286 553.77 310.412 554.082 310.412 554.454C310.412 554.826 310.286 555.138 310.034 555.39C309.782 555.642 309.476 555.768 309.116 555.768ZM310.124 557.082V567H308.072V557.082H310.124ZM317.414 556.92C318.194 556.92 318.89 557.082 319.502 557.406C320.126 557.73 320.612 558.21 320.96 558.846C321.308 559.482 321.482 560.25 321.482 561.15V567H319.448V561.456C319.448 560.568 319.226 559.89 318.782 559.422C318.338 558.942 317.732 558.702 316.964 558.702C316.196 558.702 315.584 558.942 315.128 559.422C314.684 559.89 314.462 560.568 314.462 561.456V567H312.41V557.082H314.462V558.216C314.798 557.808 315.224 557.49 315.74 557.262C316.268 557.034 316.826 556.92 317.414 556.92ZM327.687 556.92C328.455 556.92 329.133 557.076 329.721 557.388C330.321 557.688 330.789 558.066 331.125 558.522V557.082H333.195V567.162C333.195 568.074 333.003 568.884 332.619 569.592C332.235 570.312 331.677 570.876 330.945 571.284C330.225 571.692 329.361 571.896 328.353 571.896C327.009 571.896 325.893 571.578 325.005 570.942C324.117 570.318 323.613 569.466 323.493 568.386H325.527C325.683 568.902 326.013 569.316 326.517 569.628C327.033 569.952 327.645 570.114 328.353 570.114C329.181 570.114 329.847 569.862 330.351 569.358C330.867 568.854 331.125 568.122 331.125 567.162V565.506C330.777 565.974 330.303 566.37 329.703 566.694C329.115 567.006 328.443 567.162 327.687 567.162C326.823 567.162 326.031 566.946 325.311 566.514C324.603 566.07 324.039 565.458 323.619 564.678C323.211 563.886 323.007 562.992 323.007 561.996C323.007 561 323.211 560.118 323.619 559.35C324.039 558.582 324.603 557.988 325.311 557.568C326.031 557.136 326.823 556.92 327.687 556.92ZM331.125 562.032C331.125 561.348 330.981 560.754 330.693 560.25C330.417 559.746 330.051 559.362 329.595 559.098C329.139 558.834 328.647 558.702 328.119 558.702C327.591 558.702 327.099 558.834 326.643 559.098C326.187 559.35 325.815 559.728 325.527 560.232C325.251 560.724 325.113 561.312 325.113 561.996C325.113 562.68 325.251 563.28 325.527 563.796C325.815 564.312 326.187 564.708 326.643 564.984C327.111 565.248 327.603 565.38 328.119 565.38C328.647 565.38 329.139 565.248 329.595 564.984C330.051 564.72 330.417 564.336 330.693 563.832C330.981 563.316 331.125 562.716 331.125 562.032Z" fill="white"/>
</g>
<rect x="91" y="190" width="208" height="62" rx="20" fill="#487158"/>
<path d="M120.873 215.852C121.004 214.135 121.667 212.791 122.861 211.82C124.056 210.849 125.605 210.364 127.509 210.364C128.779 210.364 129.871 210.597 130.785 211.064C131.719 211.512 132.419 212.128 132.885 212.912C133.371 213.696 133.613 214.583 133.613 215.572C133.613 216.729 133.277 217.728 132.605 218.568C131.952 219.408 131.093 219.949 130.029 220.192V220.332C131.243 220.631 132.204 221.219 132.913 222.096C133.623 222.973 133.977 224.121 133.977 225.54C133.977 226.604 133.735 227.565 133.249 228.424C132.764 229.264 132.036 229.927 131.065 230.412C130.095 230.897 128.928 231.14 127.565 231.14C125.587 231.14 123.963 230.627 122.693 229.6C121.424 228.555 120.715 227.08 120.565 225.176H123.029C123.16 226.296 123.617 227.211 124.401 227.92C125.185 228.629 126.231 228.984 127.537 228.984C128.844 228.984 129.833 228.648 130.505 227.976C131.196 227.285 131.541 226.399 131.541 225.316C131.541 223.916 131.075 222.908 130.141 222.292C129.208 221.676 127.799 221.368 125.913 221.368H125.269V219.24H125.941C127.659 219.221 128.956 218.941 129.833 218.4C130.711 217.84 131.149 216.981 131.149 215.824C131.149 214.835 130.823 214.041 130.169 213.444C129.535 212.847 128.62 212.548 127.425 212.548C126.268 212.548 125.335 212.847 124.625 213.444C123.916 214.041 123.496 214.844 123.365 215.852H120.873ZM137.01 220.668C137.01 217.457 137.532 214.956 138.578 213.164C139.623 211.353 141.452 210.448 144.066 210.448C146.66 210.448 148.48 211.353 149.526 213.164C150.571 214.956 151.094 217.457 151.094 220.668C151.094 223.935 150.571 226.473 149.526 228.284C148.48 230.095 146.66 231 144.066 231C141.452 231 139.623 230.095 138.578 228.284C137.532 226.473 137.01 223.935 137.01 220.668ZM148.574 220.668C148.574 219.044 148.462 217.672 148.238 216.552C148.032 215.413 147.594 214.499 146.922 213.808C146.268 213.117 145.316 212.772 144.066 212.772C142.796 212.772 141.826 213.117 141.154 213.808C140.5 214.499 140.062 215.413 139.838 216.552C139.632 217.672 139.53 219.044 139.53 220.668C139.53 222.348 139.632 223.757 139.838 224.896C140.062 226.035 140.5 226.949 141.154 227.64C141.826 228.331 142.796 228.676 144.066 228.676C145.316 228.676 146.268 228.331 146.922 227.64C147.594 226.949 148.032 226.035 148.238 224.896C148.462 223.757 148.574 222.348 148.574 220.668ZM180.113 215.376C181.307 215.376 182.371 215.628 183.305 216.132C184.238 216.617 184.975 217.355 185.517 218.344C186.058 219.333 186.329 220.537 186.329 221.956V231H183.809V222.32C183.809 220.789 183.426 219.623 182.661 218.82C181.914 217.999 180.897 217.588 179.609 217.588C178.283 217.588 177.229 218.017 176.445 218.876C175.661 219.716 175.269 220.939 175.269 222.544V231H172.749V222.32C172.749 220.789 172.366 219.623 171.601 218.82C170.854 217.999 169.837 217.588 168.549 217.588C167.223 217.588 166.169 218.017 165.385 218.876C164.601 219.716 164.209 220.939 164.209 222.544V231H161.661V215.656H164.209V217.868C164.713 217.065 165.385 216.449 166.225 216.02C167.083 215.591 168.026 215.376 169.053 215.376C170.341 215.376 171.479 215.665 172.469 216.244C173.458 216.823 174.195 217.672 174.681 218.792C175.11 217.709 175.819 216.869 176.809 216.272C177.798 215.675 178.899 215.376 180.113 215.376ZM191.416 213.164C190.931 213.164 190.52 212.996 190.184 212.66C189.848 212.324 189.68 211.913 189.68 211.428C189.68 210.943 189.848 210.532 190.184 210.196C190.52 209.86 190.931 209.692 191.416 209.692C191.883 209.692 192.275 209.86 192.592 210.196C192.928 210.532 193.096 210.943 193.096 211.428C193.096 211.913 192.928 212.324 192.592 212.66C192.275 212.996 191.883 213.164 191.416 213.164ZM192.648 215.656V231H190.1V215.656H192.648ZM204.059 215.376C205.926 215.376 207.438 215.945 208.595 217.084C209.752 218.204 210.331 219.828 210.331 221.956V231H207.811V222.32C207.811 220.789 207.428 219.623 206.663 218.82C205.898 217.999 204.852 217.588 203.527 217.588C202.183 217.588 201.11 218.008 200.307 218.848C199.523 219.688 199.131 220.911 199.131 222.516V231H196.583V215.656H199.131V217.84C199.635 217.056 200.316 216.449 201.175 216.02C202.052 215.591 203.014 215.376 204.059 215.376ZM227.693 215.656V231H225.145V228.732C224.66 229.516 223.978 230.132 223.101 230.58C222.242 231.009 221.29 231.224 220.245 231.224C219.05 231.224 217.977 230.981 217.025 230.496C216.073 229.992 215.317 229.245 214.757 228.256C214.216 227.267 213.945 226.063 213.945 224.644V215.656H216.465V224.308C216.465 225.82 216.848 226.987 217.613 227.808C218.378 228.611 219.424 229.012 220.749 229.012C222.112 229.012 223.185 228.592 223.969 227.752C224.753 226.912 225.145 225.689 225.145 224.084V215.656H227.693ZM234.695 217.756V226.8C234.695 227.547 234.854 228.079 235.171 228.396C235.489 228.695 236.039 228.844 236.823 228.844H238.699V231H236.403C234.985 231 233.921 230.673 233.211 230.02C232.502 229.367 232.147 228.293 232.147 226.8V217.756H230.159V215.656H232.147V211.792H234.695V215.656H238.699V217.756H234.695ZM255.378 222.74C255.378 223.225 255.35 223.739 255.294 224.28H243.03C243.124 225.792 243.637 226.977 244.57 227.836C245.522 228.676 246.67 229.096 248.014 229.096C249.116 229.096 250.03 228.844 250.758 228.34C251.505 227.817 252.028 227.127 252.326 226.268H255.07C254.66 227.743 253.838 228.947 252.606 229.88C251.374 230.795 249.844 231.252 248.014 231.252C246.558 231.252 245.252 230.925 244.094 230.272C242.956 229.619 242.06 228.695 241.406 227.5C240.753 226.287 240.426 224.887 240.426 223.3C240.426 221.713 240.744 220.323 241.378 219.128C242.013 217.933 242.9 217.019 244.038 216.384C245.196 215.731 246.521 215.404 248.014 215.404C249.47 215.404 250.758 215.721 251.878 216.356C252.998 216.991 253.857 217.868 254.454 218.988C255.07 220.089 255.378 221.34 255.378 222.74ZM252.746 222.208C252.746 221.237 252.532 220.407 252.102 219.716C251.673 219.007 251.085 218.475 250.338 218.12C249.61 217.747 248.798 217.56 247.902 217.56C246.614 217.56 245.513 217.971 244.598 218.792C243.702 219.613 243.189 220.752 243.058 222.208H252.746ZM263.766 231.252C262.59 231.252 261.535 231.056 260.602 230.664C259.668 230.253 258.931 229.693 258.39 228.984C257.848 228.256 257.55 227.425 257.494 226.492H260.126C260.2 227.257 260.555 227.883 261.19 228.368C261.843 228.853 262.692 229.096 263.738 229.096C264.708 229.096 265.474 228.881 266.034 228.452C266.594 228.023 266.874 227.481 266.874 226.828C266.874 226.156 266.575 225.661 265.978 225.344C265.38 225.008 264.456 224.681 263.206 224.364C262.067 224.065 261.134 223.767 260.406 223.468C259.696 223.151 259.08 222.693 258.558 222.096C258.054 221.48 257.802 220.677 257.802 219.688C257.802 218.904 258.035 218.185 258.502 217.532C258.968 216.879 259.631 216.365 260.49 215.992C261.348 215.6 262.328 215.404 263.43 215.404C265.128 215.404 266.5 215.833 267.546 216.692C268.591 217.551 269.151 218.727 269.226 220.22H266.678C266.622 219.417 266.295 218.773 265.698 218.288C265.119 217.803 264.335 217.56 263.346 217.56C262.431 217.56 261.703 217.756 261.162 218.148C260.62 218.54 260.35 219.053 260.35 219.688C260.35 220.192 260.508 220.612 260.826 220.948C261.162 221.265 261.572 221.527 262.058 221.732C262.562 221.919 263.252 222.133 264.13 222.376C265.231 222.675 266.127 222.973 266.818 223.272C267.508 223.552 268.096 223.981 268.582 224.56C269.086 225.139 269.347 225.895 269.366 226.828C269.366 227.668 269.132 228.424 268.666 229.096C268.199 229.768 267.536 230.3 266.678 230.692C265.838 231.065 264.867 231.252 263.766 231.252Z" fill="white"/>
</g>
<defs>
<filter id="filter0_d_363_26891" x="251" y="772" width="41" height="40" filterUnits="userSpaceOnUse" color-interpolation-filters="sRGB">
<feFlood flood-opacity="0" result="BackgroundImageFix"/>
<feColorMatrix in="SourceAlpha" type="matrix" values="0 0 0 0 0 0 0 0 0 0 0 0 0 0 0 0 0 0 127 0" result="hardAlpha"/>
<feOffset dx="3" dy="2"/>
<feGaussianBlur stdDeviation="1"/>
<feComposite in2="hardAlpha" operator="out"/>
<feColorMatrix type="matrix" values="0 0 0 0 0 0 0 0 0 0 0 0 0 0 0 0 0 0 0.25 0"/>
<feBlend mode="normal" in2="BackgroundImageFix" result="effect1_dropShadow_363_26891"/>
<feBlend mode="normal" in="SourceGraphic" in2="effect1_dropShadow_363_26891" result="shape"/>
</filter>
<filter id="filter1_d_363_26891" x="106.797" y="772" width="41.5537" height="40" filterUnits="userSpaceOnUse" color-interpolation-filters="sRGB">
<feFlood flood-opacity="0" result="BackgroundImageFix"/>
<feColorMatrix in="SourceAlpha" type="matrix" values="0 0 0 0 0 0 0 0 0 0 0 0 0 0 0 0 0 0 127 0" result="hardAlpha"/>
<feOffset dx="3" dy="2"/>
<feGaussianBlur stdDeviation="1"/>
<feComposite in2="hardAlpha" operator="out"/>
<feColorMatrix type="matrix" values="0 0 0 0 0 0 0 0 0 0 0 0 0 0 0 0 0 0 0.25 0"/>
<feBlend mode="normal" in2="BackgroundImageFix" result="effect1_dropShadow_363_26891"/>
<feBlend mode="normal" in="SourceGraphic" in2="effect1_dropShadow_363_26891" result="shape"/>
</filter>
<filter id="filter2_d_363_26891" x="31" y="767" width="45.085" height="48" filterUnits="userSpaceOnUse" color-interpolation-filters="sRGB">
<feFlood flood-opacity="0" result="BackgroundImageFix"/>
<feColorMatrix in="SourceAlpha" type="matrix" values="0 0 0 0 0 0 0 0 0 0 0 0 0 0 0 0 0 0 127 0" result="hardAlpha"/>
<feOffset dx="3" dy="2"/>
<feGaussianBlur stdDeviation="1"/>
<feComposite in2="hardAlpha" operator="out"/>
<feColorMatrix type="matrix" values="0 0 0 0 0 0 0 0 0 0 0 0 0 0 0 0 0 0 0.25 0"/>
<feBlend mode="normal" in2="BackgroundImageFix" result="effect1_dropShadow_363_26891"/>
<feBlend mode="normal" in="SourceGraphic" in2="effect1_dropShadow_363_26891" result="shape"/>
</filter>
<filter id="filter3_d_363_26891" x="323" y="772" width="41" height="40" filterUnits="userSpaceOnUse" color-interpolation-filters="sRGB">
<feFlood flood-opacity="0" result="BackgroundImageFix"/>
<feColorMatrix in="SourceAlpha" type="matrix" values="0 0 0 0 0 0 0 0 0 0 0 0 0 0 0 0 0 0 127 0" result="hardAlpha"/>
<feOffset dx="3" dy="2"/>
<feGaussianBlur stdDeviation="1"/>
<feComposite in2="hardAlpha" operator="out"/>
<feColorMatrix type="matrix" values="0 0 0 0 0 0 0 0 0 0 0 0 0 0 0 0 0 0 0.25 0"/>
<feBlend mode="normal" in2="BackgroundImageFix" result="effect1_dropShadow_363_26891"/>
<feBlend mode="normal" in="SourceGraphic" in2="effect1_dropShadow_363_26891" result="shape"/>
</filter>
<filter id="filter4_d_363_26891" x="179.351" y="772" width="41.001" height="40" filterUnits="userSpaceOnUse" color-interpolation-filters="sRGB">
<feFlood flood-opacity="0" result="BackgroundImageFix"/>
<feColorMatrix in="SourceAlpha" type="matrix" values="0 0 0 0 0 0 0 0 0 0 0 0 0 0 0 0 0 0 127 0" result="hardAlpha"/>
<feOffset dx="3" dy="2"/>
<feGaussianBlur stdDeviation="1"/>
<feComposite in2="hardAlpha" operator="out"/>
<feColorMatrix type="matrix" values="0 0 0 0 0 0 0 0 0 0 0 0 0 0 0 0 0 0 0.25 0"/>
<feBlend mode="normal" in2="BackgroundImageFix" result="effect1_dropShadow_363_26891"/>
<feBlend mode="normal" in="SourceGraphic" in2="effect1_dropShadow_363_26891" result="shape"/>
</filter>
<filter id="filter5_d_363_26891" x="152.705" y="377.6" width="104.682" height="18.5801" filterUnits="userSpaceOnUse" color-interpolation-filters="sRGB">
<feFlood flood-opacity="0" result="BackgroundImageFix"/>
<feColorMatrix in="SourceAlpha" type="matrix" values="0 0 0 0 0 0 0 0 0 0 0 0 0 0 0 0 0 0 127 0" result="hardAlpha"/>
<feOffset dx="2" dy="2"/>
<feGaussianBlur stdDeviation="0.5"/>
<feComposite in2="hardAlpha" operator="out"/>
<feColorMatrix type="matrix" values="0 0 0 0 0.134679 0 0 0 0 0.108304 0 0 0 0 0.108304 0 0 0 0.5 0"/>
<feBlend mode="normal" in2="BackgroundImageFix" result="effect1_dropShadow_363_26891"/>
<feBlend mode="normal" in="SourceGraphic" in2="effect1_dropShadow_363_26891" result="shape"/>
</filter>
<filter id="filter6_d_363_26891" x="91.4941" y="476.49" width="46.9365" height="20.406" filterUnits="userSpaceOnUse" color-interpolation-filters="sRGB">
<feFlood flood-opacity="0" result="BackgroundImageFix"/>
<feColorMatrix in="SourceAlpha" type="matrix" values="0 0 0 0 0 0 0 0 0 0 0 0 0 0 0 0 0 0 127 0" result="hardAlpha"/>
<feOffset dx="2" dy="2"/>
<feGaussianBlur stdDeviation="0.5"/>
<feComposite in2="hardAlpha" operator="out"/>
<feColorMatrix type="matrix" values="0 0 0 0 0.134679 0 0 0 0 0.108304 0 0 0 0 0.108304 0 0 0 0.5 0"/>
<feBlend mode="normal" in2="BackgroundImageFix" result="effect1_dropShadow_363_26891"/>
<feBlend mode="normal" in="SourceGraphic" in2="effect1_dropShadow_363_26891" result="shape"/>
</filter>
<filter id="filter7_d_363_26891" x="264.347" y="475.68" width="49.6719" height="21.036" filterUnits="userSpaceOnUse" color-interpolation-filters="sRGB">
<feFlood flood-opacity="0" result="BackgroundImageFix"/>
<feColorMatrix in="SourceAlpha" type="matrix" values="0 0 0 0 0 0 0 0 0 0 0 0 0 0 0 0 0 0 127 0" result="hardAlpha"/>
<feOffset dx="2" dy="2"/>
<feGaussianBlur stdDeviation="0.5"/>
<feComposite in2="hardAlpha" operator="out"/>
<feColorMatrix type="matrix" values="0 0 0 0 0.134679 0 0 0 0 0.108304 0 0 0 0 0.108304 0 0 0 0.5 0"/>
<feBlend mode="normal" in2="BackgroundImageFix" result="effect1_dropShadow_363_26891"/>
<feBlend mode="normal" in="SourceGraphic" in2="effect1_dropShadow_363_26891" result="shape"/>
</filter>
<filter id="filter8_d_363_26891" x="263.802" y="553.14" width="72.3936" height="21.7561" filterUnits="userSpaceOnUse" color-interpolation-filters="sRGB">
<feFlood flood-opacity="0" result="BackgroundImageFix"/>
<feColorMatrix in="SourceAlpha" type="matrix" values="0 0 0 0 0 0 0 0 0 0 0 0 0 0 0 0 0 0 127 0" result="hardAlpha"/>
<feOffset dx="2" dy="2"/>
<feGaussianBlur stdDeviation="0.5"/>
<feComposite in2="hardAlpha" operator="out"/>
<feColorMatrix type="matrix" values="0 0 0 0 0.134679 0 0 0 0 0.108304 0 0 0 0 0.108304 0 0 0 0.5 0"/>
<feBlend mode="normal" in2="BackgroundImageFix" result="effect1_dropShadow_363_26891"/>
<feBlend mode="normal" in="SourceGraphic" in2="effect1_dropShadow_363_26891" result="shape"/>
</filter>
<clipPath id="clip0_363_26891">
<rect width="390" height="844" fill="white"/>
</clipPath>
<clipPath id="clip1_363_26891">
<rect width="390" height="47" fill="white"/>
</clipPath>
</defs>
</svg>
