<svg width="100" height="100" viewBox="0 0 100 100" fill="none" xmlns="http://www.w3.org/2000/svg">
<path d="M50 100C22.386 100 0 77.614 0 50C0 22.386 22.386 0 50 0C77.614 0 100 22.386 100 50C100 77.614 77.614 100 50 100Z" fill="url(#paint0_linear_25_3138)"/>
<path d="M61.624 22.5H38.374C29.606 22.5 22.5 29.608 22.5 38.374V61.624C22.5 70.392 29.608 77.5 38.374 77.5H61.624C70.392 77.5 77.498 70.394 77.498 61.624V38.374C77.5 29.608 70.392 22.5 61.624 22.5ZM72.434 62.034C72.434 67.854 67.716 72.572 61.896 72.572H38.102C32.282 72.572 27.564 67.854 27.564 62.034V38.24C27.564 32.42 32.282 27.702 38.102 27.702H61.896C67.716 27.702 72.434 32.418 72.434 38.24V62.034Z" fill="white"/>
<path d="M50 35.866C42.118 35.866 35.73 42.254 35.73 50.136C35.73 58.018 42.12 64.408 50 64.408C57.882 64.408 64.272 58.018 64.272 50.136C64.27 42.254 57.882 35.866 50 35.866ZM50 59.388C44.89 59.388 40.75 55.246 40.75 50.138C40.75 45.028 44.892 40.888 50 40.888C55.11 40.888 59.25 45.028 59.25 50.138C59.25 55.246 55.11 59.388 50 59.388Z" fill="white"/>
<path d="M64.746 31.998C62.91 31.998 61.422 33.486 61.422 35.322C61.422 37.158 62.91 38.646 64.746 38.646C66.582 38.646 68.07 37.158 68.07 35.322C68.072 33.488 66.582 31.998 64.746 31.998Z" fill="white"/>
<defs>
<linearGradient id="paint0_linear_25_3138" x1="85.6948" y1="14.3052" x2="14.7488" y2="85.2512" gradientUnits="userSpaceOnUse">
<stop stop-color="#D6B038"/>
<stop offset="0.0602191" stop-color="#D6AB39"/>
<stop offset="0.1299" stop-color="#D59D3A"/>
<stop offset="0.2043" stop-color="#D3863D"/>
<stop offset="0.282" stop-color="#D16540"/>
<stop offset="0.3614" stop-color="#CE3C45"/>
<stop offset="0.3973" stop-color="#CC2747"/>
<stop offset="0.4526" stop-color="#CA284B"/>
<stop offset="0.5075" stop-color="#C52B57"/>
<stop offset="0.5624" stop-color="#BB306B"/>
<stop offset="0.6169" stop-color="#AF3787"/>
<stop offset="0.6568" stop-color="#A33EA0"/>
<stop offset="0.7136" stop-color="#9C3EA0"/>
<stop offset="0.7964" stop-color="#893E9F"/>
<stop offset="0.8951" stop-color="#693F9F"/>
<stop offset="1" stop-color="#3F3F9E"/>
</linearGradient>
</defs>
</svg>
