<svg width="100" height="100" viewBox="0 0 100 100" fill="none" xmlns="http://www.w3.org/2000/svg">
<mask id="mask0_25_3127" style="mask-type:luminance" maskUnits="userSpaceOnUse" x="0" y="0" width="100" height="101">
<path d="M100 50.0031C100 77.6169 77.6132 100.001 49.9994 100.001C22.3841 100.001 0 77.6169 0 50.0031C0 22.3893 22.3841 1.16922e-05 49.9994 1.16922e-05C77.6132 1.16922e-05 100 22.3893 100 50.0031Z" fill="white"/>
</mask>
<g mask="url(#mask0_25_3127)">
<path d="M100 50.0031C100 77.6169 77.6132 100.001 49.9994 100.001C22.3841 100.001 0 77.6169 0 50.0031C0 22.3893 22.3841 1.16922e-05 49.9994 1.16922e-05C77.6132 1.16922e-05 100 22.3893 100 50.0031Z" fill="#1679B3"/>
</g>
<path d="M33.8737 25.2306C36.9713 25.2306 39.4813 27.7447 39.4813 30.8358C39.4813 33.9268 36.9713 36.4433 33.8737 36.4433C30.7704 36.4433 28.2605 33.9268 28.2605 30.8358C28.2605 27.7447 30.7704 25.2306 33.8737 25.2306ZM29.0298 40.6912H38.7146V71.7969H29.0298V40.6912Z" fill="white"/>
<path d="M44.7832 40.6912H54.0577V44.9443H54.1832C55.4775 42.4958 58.6315 39.9177 63.34 39.9177C73.1302 39.9177 74.9351 46.3576 74.9351 54.7358V71.7969H65.2745V56.6714C65.2745 53.0636 65.2024 48.4228 60.248 48.4228C55.2132 48.4228 54.4479 52.3554 54.4479 56.4084V71.7969H44.7832V40.6912Z" fill="white"/>
</svg>
