<svg width="100" height="100" viewBox="0 0 100 100" fill="none" xmlns="http://www.w3.org/2000/svg">
<path d="M50 100C77.6143 100 100 77.6143 100 50C100 22.3858 77.6143 0 50 0C22.3858 0 0 22.3858 0 50C0 77.6143 22.3858 100 50 100Z" fill="url(#paint0_linear_25_3135)"/>
<path d="M22.6071 49.459C37.179 43.131 46.8784 38.9255 51.7487 36.8857C65.6124 31.0987 68.5255 30.0994 70.4001 30.0581C70.8172 30.0581 71.7318 30.1407 72.3573 30.6403C72.857 31.0574 72.9808 31.5983 73.0655 32.0133C73.1481 32.4303 73.2327 33.3036 73.1481 33.9705C72.3986 41.8799 69.151 61.0722 67.487 69.8983C66.7788 73.6455 65.4059 74.8946 64.0742 75.0185C61.1591 75.2683 58.9541 73.1025 56.1648 71.2713C51.7528 68.3994 49.296 66.6094 45.0078 63.7768C40.0529 60.5292 43.2591 58.7393 46.0897 55.8261C46.8391 55.0767 59.6189 43.4201 59.8687 42.3795C59.91 42.2556 59.91 41.756 59.6189 41.5062C59.3278 41.2564 58.9107 41.339 58.5783 41.4236C58.12 41.5062 51.1273 46.1701 37.5134 55.3699C35.5149 56.7428 33.7249 57.4097 32.1022 57.3684C30.3122 57.3271 26.8973 56.3691 24.3166 55.5371C21.195 54.5378 18.6968 53.9969 18.9054 52.2482C19.0272 51.3315 20.2762 50.4169 22.6071 49.459Z" fill="white"/>
<defs>
<linearGradient id="paint0_linear_25_3135" x1="50" y1="-0.00206458" x2="50" y2="99.201" gradientUnits="userSpaceOnUse">
<stop stop-color="#2AABEE"/>
<stop offset="1" stop-color="#229ED9"/>
</linearGradient>
</defs>
</svg>
